<?xml version="1.0" encoding="UTF-8"?>
<!DOCTYPE svg PUBLIC "-//W3C//DTD SVG 1.1//EN" "http://www.w3.org/Graphics/SVG/1.1/DTD/svg11.dtd">
<svg xmlns="http://www.w3.org/2000/svg" version="1.1" width="473px" height="528px" style="shape-rendering:geometricPrecision; text-rendering:geometricPrecision; image-rendering:optimizeQuality; fill-rule:evenodd; clip-rule:evenodd" xmlns:xlink="http://www.w3.org/1999/xlink">
<g><path style="opacity:1" fill="#0c7db4" d="M 244.5,92.5 C 244.383,94.4835 245.05,96.1502 246.5,97.5C 248.912,98.5773 251.246,99.744 253.5,101C 251.427,104.089 249.76,107.423 248.5,111C 250.797,112.16 250.464,113.16 247.5,114C 248.253,115.487 249.086,115.654 250,114.5C 250.98,116.059 251.813,117.726 252.5,119.5C 253.687,118.106 254.354,118.273 254.5,120C 254.025,121.763 253.358,123.43 252.5,125C 248.789,125.844 245.123,126.844 241.5,128C 242.949,129.117 244.616,129.784 246.5,130C 242.358,130.727 238.358,131.727 234.5,133C 238.942,132.269 243.275,132.435 247.5,133.5C 236.202,134.324 225.535,137.324 215.5,142.5C 214.15,141.176 214.317,140.176 216,139.5C 222.394,137.091 228.561,134.258 234.5,131C 233.874,130.25 233.374,129.416 233,128.5C 228.097,130.017 227.597,129.35 231.5,126.5C 231.023,125.522 230.357,124.689 229.5,124C 231.797,122.84 231.464,121.84 228.5,121C 229.081,120.107 229.415,119.107 229.5,118C 228.622,116.2 227.955,114.367 227.5,112.5C 228.552,112.649 229.552,112.483 230.5,112C 231.833,111.333 231.833,110.667 230.5,110C 218.618,108.708 218.618,107.208 230.5,105.5C 231.91,105.132 232.91,104.299 233.5,103C 232.551,102.383 231.718,102.549 231,103.5C 228.353,102.331 225.853,100.998 223.5,99.5C 220.96,100.02 218.46,100.687 216,101.5C 214.93,101.472 214.097,101.139 213.5,100.5C 223.576,96.7312 233.909,94.0646 244.5,92.5 Z"/></g>
<g><path style="opacity:1" fill="#098cc3" d="M 244.5,92.5 C 255.172,92.3335 265.839,92.5002 276.5,93C 280.025,93.1787 283.359,93.6787 286.5,94.5C 284.473,94.3379 282.473,94.5045 280.5,95C 282.98,95.9154 283.647,97.4154 282.5,99.5C 285.331,103.33 284.998,106.83 281.5,110C 281.226,113.797 281.893,117.63 283.5,121.5C 282.285,124.329 280.619,126.829 278.5,129C 274.84,129.547 271.173,130.047 267.5,130.5C 265.616,130.284 263.949,129.617 262.5,128.5C 259.741,129.879 257.075,131.213 254.5,132.5C 252.05,132.298 249.717,132.631 247.5,133.5C 243.275,132.435 238.942,132.269 234.5,133C 238.358,131.727 242.358,130.727 246.5,130C 244.616,129.784 242.949,129.117 241.5,128C 245.123,126.844 248.789,125.844 252.5,125C 253.358,123.43 254.025,121.763 254.5,120C 254.354,118.273 253.687,118.106 252.5,119.5C 251.813,117.726 250.98,116.059 250,114.5C 249.086,115.654 248.253,115.487 247.5,114C 250.464,113.16 250.797,112.16 248.5,111C 249.76,107.423 251.427,104.089 253.5,101C 251.246,99.744 248.912,98.5773 246.5,97.5C 245.05,96.1502 244.383,94.4835 244.5,92.5 Z"/></g>
<g><path style="opacity:1" fill="#096fa8" d="M 215.5,142.5 C 209.843,144.993 204.51,147.993 199.5,151.5C 195.516,147.86 196.516,145.694 202.5,145C 202.409,142.697 203.743,141.03 206.5,140C 205.407,136.212 206.407,133.045 209.5,130.5C 205.347,128.558 204.68,125.891 207.5,122.5C 206.167,121.833 204.833,121.167 203.5,120.5C 206.826,113.812 204.993,110.146 198,109.5C 195.845,110.244 193.845,111.244 192,112.5C 191.235,112.43 190.735,112.097 190.5,111.5C 197.835,107.27 205.502,103.603 213.5,100.5C 214.097,101.139 214.93,101.472 216,101.5C 218.46,100.687 220.96,100.02 223.5,99.5C 225.853,100.998 228.353,102.331 231,103.5C 231.718,102.549 232.551,102.383 233.5,103C 232.91,104.299 231.91,105.132 230.5,105.5C 218.618,107.208 218.618,108.708 230.5,110C 231.833,110.667 231.833,111.333 230.5,112C 229.552,112.483 228.552,112.649 227.5,112.5C 227.955,114.367 228.622,116.2 229.5,118C 229.415,119.107 229.081,120.107 228.5,121C 231.464,121.84 231.797,122.84 229.5,124C 230.357,124.689 231.023,125.522 231.5,126.5C 227.597,129.35 228.097,130.017 233,128.5C 233.374,129.416 233.874,130.25 234.5,131C 228.561,134.258 222.394,137.091 216,139.5C 214.317,140.176 214.15,141.176 215.5,142.5 Z"/></g>
<g><path style="opacity:1" fill="#08669f" d="M 199.5,151.5 C 195.543,154.122 191.876,157.122 188.5,160.5C 188.351,159.448 188.517,158.448 189,157.5C 191.5,155.667 193.667,153.5 195.5,151C 192.665,148.158 193.165,145.992 197,144.5C 197.667,141.5 197.667,138.5 197,135.5C 196.174,137.405 195.007,137.739 193.5,136.5C 196.167,133.833 196.167,131.167 193.5,128.5C 194.074,126.941 194.74,125.441 195.5,124C 192.72,120.98 189.387,118.813 185.5,117.5C 182.93,118.214 180.43,119.214 178,120.5C 177.235,120.43 176.735,120.097 176.5,119.5C 180.926,116.406 185.593,113.739 190.5,111.5C 190.735,112.097 191.235,112.43 192,112.5C 193.845,111.244 195.845,110.244 198,109.5C 204.993,110.146 206.826,113.812 203.5,120.5C 204.833,121.167 206.167,121.833 207.5,122.5C 204.68,125.891 205.347,128.558 209.5,130.5C 206.407,133.045 205.407,136.212 206.5,140C 203.743,141.03 202.409,142.697 202.5,145C 196.516,145.694 195.516,147.86 199.5,151.5 Z"/></g>
<g><path style="opacity:1" fill="#0b9dd1" d="M 286.5,94.5 C 287.5,94.5 288.5,94.5 289.5,94.5C 292.515,95.7396 295.015,97.7396 297,100.5C 297.561,99.9781 298.228,99.6448 299,99.5C 300.49,100.317 301.99,101.15 303.5,102C 301.731,103.019 300.064,103.186 298.5,102.5C 297.167,103.167 297.167,103.833 298.5,104.5C 315.345,107.644 315.345,109.477 298.5,110C 298.167,110.333 297.833,110.667 297.5,111C 298.938,111.219 300.271,111.719 301.5,112.5C 300.167,114.5 298.833,116.5 297.5,118.5C 298.325,119.386 299.325,119.719 300.5,119.5C 300.617,121.484 299.95,123.15 298.5,124.5C 298.977,125.478 299.643,126.311 300.5,127C 300.167,127.333 299.833,127.667 299.5,128C 300.759,128.923 302.092,129.757 303.5,130.5C 302.5,131.167 301.5,131.833 300.5,132.5C 304.93,133.75 309.264,135.084 313.5,136.5C 313.038,137.88 312.038,138.547 310.5,138.5C 308.865,137.954 307.199,137.62 305.5,137.5C 302.031,136.3 298.698,136.3 295.5,137.5C 282.127,133.858 268.46,132.192 254.5,132.5C 257.075,131.213 259.741,129.879 262.5,128.5C 263.949,129.617 265.616,130.284 267.5,130.5C 271.173,130.047 274.84,129.547 278.5,129C 280.619,126.829 282.285,124.329 283.5,121.5C 281.893,117.63 281.226,113.797 281.5,110C 284.998,106.83 285.331,103.33 282.5,99.5C 283.647,97.4154 282.98,95.9154 280.5,95C 282.473,94.5045 284.473,94.3379 286.5,94.5 Z"/></g>
<g><path style="opacity:1" fill="#12b3e4" d="M 322.5,107.5 C 328.488,110.081 333.154,113.581 336.5,118C 337.449,118.617 338.282,118.451 339,117.5C 339.465,118.931 340.299,120.097 341.5,121C 339.003,121.412 337.003,122.578 335.5,124.5C 336.522,125.354 337.355,126.354 338,127.5C 338.401,130.699 339.234,133.699 340.5,136.5C 339.5,136.5 338.5,136.5 337.5,136.5C 338.589,140.354 338.589,144.021 337.5,147.5C 336.815,149.547 335.649,151.214 334,152.5C 332.148,150.114 329.648,148.947 326.5,149C 325.874,148.25 325.374,147.416 325,146.5C 324.667,146.833 324.333,147.167 324,147.5C 321.929,146.475 319.762,145.642 317.5,145C 315.449,140.25 311.782,138.25 306.5,139C 305.944,138.617 305.611,138.117 305.5,137.5C 307.199,137.62 308.865,137.954 310.5,138.5C 312.038,138.547 313.038,137.88 313.5,136.5C 314.458,136.953 315.292,137.619 316,138.5C 316.667,136.5 318,135.167 320,134.5C 320.847,131.51 319.68,130.176 316.5,130.5C 316.5,129.5 316.5,128.5 316.5,127.5C 318.527,127.662 320.527,127.495 322.5,127C 321.167,126.333 321.167,125.667 322.5,125C 321.5,124.167 320.5,123.333 319.5,122.5C 320.76,121.618 321.926,120.618 323,119.5C 324.049,121.107 325.549,121.773 327.5,121.5C 327.5,119.833 327.5,118.167 327.5,116.5C 326.448,116.649 325.448,116.483 324.5,116C 325.576,114.274 325.743,112.441 325,110.5C 324.667,110.833 324.333,111.167 324,111.5C 323.535,110.069 322.701,108.903 321.5,108C 321.728,107.601 322.062,107.435 322.5,107.5 Z"/></g>
<g><path style="opacity:1" fill="#0ba8db" d="M 289.5,94.5 C 300.057,96.4636 310.057,99.7969 319.5,104.5C 320.306,105.728 321.306,106.728 322.5,107.5C 322.062,107.435 321.728,107.601 321.5,108C 322.701,108.903 323.535,110.069 324,111.5C 324.333,111.167 324.667,110.833 325,110.5C 325.743,112.441 325.576,114.274 324.5,116C 325.448,116.483 326.448,116.649 327.5,116.5C 327.5,118.167 327.5,119.833 327.5,121.5C 325.549,121.773 324.049,121.107 323,119.5C 321.926,120.618 320.76,121.618 319.5,122.5C 320.5,123.333 321.5,124.167 322.5,125C 321.167,125.667 321.167,126.333 322.5,127C 320.527,127.495 318.527,127.662 316.5,127.5C 316.5,128.5 316.5,129.5 316.5,130.5C 319.68,130.176 320.847,131.51 320,134.5C 318,135.167 316.667,136.5 316,138.5C 315.292,137.619 314.458,136.953 313.5,136.5C 309.264,135.084 304.93,133.75 300.5,132.5C 301.5,131.833 302.5,131.167 303.5,130.5C 302.092,129.757 300.759,128.923 299.5,128C 299.833,127.667 300.167,127.333 300.5,127C 299.643,126.311 298.977,125.478 298.5,124.5C 299.95,123.15 300.617,121.484 300.5,119.5C 299.325,119.719 298.325,119.386 297.5,118.5C 298.833,116.5 300.167,114.5 301.5,112.5C 300.271,111.719 298.938,111.219 297.5,111C 297.833,110.667 298.167,110.333 298.5,110C 315.345,109.477 315.345,107.644 298.5,104.5C 297.167,103.833 297.167,103.167 298.5,102.5C 300.064,103.186 301.731,103.019 303.5,102C 301.99,101.15 300.49,100.317 299,99.5C 298.228,99.6448 297.561,99.9781 297,100.5C 295.015,97.7396 292.515,95.7396 289.5,94.5 Z"/></g>
<g><path style="opacity:1" fill="#07609b" d="M 188.5,160.5 C 183.823,165.874 179.157,171.207 174.5,176.5C 175.637,174.161 175.804,171.828 175,169.5C 178.057,170.852 178.89,170.019 177.5,167C 178.493,163.63 180.493,162.63 183.5,164C 182.715,161.557 182.881,159.057 184,156.5C 185.557,157.205 186.723,156.539 187.5,154.5C 186.5,154.5 185.5,154.5 184.5,154.5C 186.769,152.119 186.769,149.619 184.5,147C 187.259,144.516 186.926,143.35 183.5,143.5C 182.709,140.583 182.709,137.75 183.5,135C 182.551,134.383 181.718,134.549 181,135.5C 180.085,132.657 180.919,130.49 183.5,129C 183.333,128.5 183.167,128 183,127.5C 181.204,128.767 179.371,128.767 177.5,127.5C 176.5,129.5 175.5,131.5 174.5,133.5C 172.538,132.366 170.538,132.366 168.5,133.5C 167.353,133.182 166.519,132.516 166,131.5C 162.754,132.913 159.92,134.913 157.5,137.5C 157.167,137.5 156.833,137.5 156.5,137.5C 162.246,130.418 168.913,124.418 176.5,119.5C 176.735,120.097 177.235,120.43 178,120.5C 180.43,119.214 182.93,118.214 185.5,117.5C 189.387,118.813 192.72,120.98 195.5,124C 194.74,125.441 194.074,126.941 193.5,128.5C 196.167,131.167 196.167,133.833 193.5,136.5C 195.007,137.739 196.174,137.405 197,135.5C 197.667,138.5 197.667,141.5 197,144.5C 193.165,145.992 192.665,148.158 195.5,151C 193.667,153.5 191.5,155.667 189,157.5C 188.517,158.448 188.351,159.448 188.5,160.5 Z"/></g>
<g><path style="opacity:1" fill="#32bcea" d="M 319.5,104.5 C 335.403,110.273 349.069,119.273 360.5,131.5C 361.569,133.969 362.902,136.302 364.5,138.5C 363.048,139.302 361.382,139.802 359.5,140C 361.333,141.167 363.167,142.333 365,143.5C 365.49,144.793 365.657,146.127 365.5,147.5C 366.833,147.5 368.167,147.5 369.5,147.5C 369.5,148.833 369.5,150.167 369.5,151.5C 371.288,151.215 372.955,151.548 374.5,152.5C 375.09,153.799 376.09,154.632 377.5,155C 373.052,158.845 369.885,158.012 368,152.5C 367.175,154.701 367.675,156.534 369.5,158C 368.348,160.149 366.848,161.982 365,163.5C 363.383,162.464 363.216,161.297 364.5,160C 361.739,156.974 358.906,156.807 356,159.5C 354.627,159.596 353.127,159.43 351.5,159C 351.833,159.333 352.167,159.667 352.5,160C 351.718,162.74 351.218,165.574 351,168.5C 350,168.167 349,167.833 348,167.5C 348.379,165.925 348.212,164.425 347.5,163C 345.39,163.347 343.39,163.18 341.5,162.5C 341.189,161.522 340.522,160.855 339.5,160.5C 338.5,161.833 337.5,161.833 336.5,160.5C 335.194,159.088 334.36,157.421 334,155.5C 332.374,155.854 330.541,155.854 328.5,155.5C 318.547,147.688 307.547,141.688 295.5,137.5C 298.698,136.3 302.031,136.3 305.5,137.5C 305.611,138.117 305.944,138.617 306.5,139C 311.782,138.25 315.449,140.25 317.5,145C 319.762,145.642 321.929,146.475 324,147.5C 324.333,147.167 324.667,146.833 325,146.5C 325.374,147.416 325.874,148.25 326.5,149C 329.648,148.947 332.148,150.114 334,152.5C 335.649,151.214 336.815,149.547 337.5,147.5C 338.589,144.021 338.589,140.354 337.5,136.5C 338.5,136.5 339.5,136.5 340.5,136.5C 339.234,133.699 338.401,130.699 338,127.5C 337.355,126.354 336.522,125.354 335.5,124.5C 337.003,122.578 339.003,121.412 341.5,121C 340.299,120.097 339.465,118.931 339,117.5C 338.282,118.451 337.449,118.617 336.5,118C 333.154,113.581 328.488,110.081 322.5,107.5C 321.306,106.728 320.306,105.728 319.5,104.5 Z"/></g>
<g><path style="opacity:1" fill="#025695" d="M 174.5,176.5 C 174.5,177.167 174.167,177.5 173.5,177.5C 170.887,180.011 168.72,183.011 167,186.5C 165.686,187.313 164.519,188.313 163.5,189.5C 161.605,187.133 161.105,184.466 162,181.5C 163.789,184.179 164.955,184.013 165.5,181C 165.328,178.83 164.328,177.163 162.5,176C 163.826,172.445 163.659,168.945 162,165.5C 160.267,163.277 158.767,160.944 157.5,158.5C 160.159,156.036 160.826,153.203 159.5,150C 158.833,149.333 158.167,149.333 157.5,150C 156.577,152.041 156.244,154.208 156.5,156.5C 154.077,156.424 152.244,157.424 151,159.5C 150.841,155.829 152.507,152.495 156,149.5C 156.813,147.564 157.313,145.564 157.5,143.5C 163.253,143.138 163.586,142.138 158.5,140.5C 157.614,139.675 157.281,138.675 157.5,137.5C 159.92,134.913 162.754,132.913 166,131.5C 166.519,132.516 167.353,133.182 168.5,133.5C 170.538,132.366 172.538,132.366 174.5,133.5C 175.5,131.5 176.5,129.5 177.5,127.5C 179.371,128.767 181.204,128.767 183,127.5C 183.167,128 183.333,128.5 183.5,129C 180.919,130.49 180.085,132.657 181,135.5C 181.718,134.549 182.551,134.383 183.5,135C 182.709,137.75 182.709,140.583 183.5,143.5C 186.926,143.35 187.259,144.516 184.5,147C 186.769,149.619 186.769,152.119 184.5,154.5C 185.5,154.5 186.5,154.5 187.5,154.5C 186.723,156.539 185.557,157.205 184,156.5C 182.881,159.057 182.715,161.557 183.5,164C 180.493,162.63 178.493,163.63 177.5,167C 178.89,170.019 178.057,170.852 175,169.5C 175.804,171.828 175.637,174.161 174.5,176.5 Z"/></g>
<g><path style="opacity:1" fill="#044f8b" d="M 156.5,137.5 C 156.833,137.5 157.167,137.5 157.5,137.5C 157.281,138.675 157.614,139.675 158.5,140.5C 163.586,142.138 163.253,143.138 157.5,143.5C 157.313,145.564 156.813,147.564 156,149.5C 152.507,152.495 150.841,155.829 151,159.5C 152.244,157.424 154.077,156.424 156.5,156.5C 156.244,154.208 156.577,152.041 157.5,150C 158.167,149.333 158.833,149.333 159.5,150C 160.826,153.203 160.159,156.036 157.5,158.5C 158.767,160.944 160.267,163.277 162,165.5C 163.659,168.945 163.826,172.445 162.5,176C 164.328,177.163 165.328,178.83 165.5,181C 164.955,184.013 163.789,184.179 162,181.5C 161.105,184.466 161.605,187.133 163.5,189.5C 164.519,188.313 165.686,187.313 167,186.5C 168.72,183.011 170.887,180.011 173.5,177.5C 167.376,188.752 162.043,200.419 157.5,212.5C 156.21,213.058 155.377,214.058 155,215.5C 153.22,230.645 153.053,245.812 154.5,261C 154.346,263.379 153.68,265.546 152.5,267.5C 152.709,268.086 153.043,268.586 153.5,269C 152.333,269.5 151.5,270.333 151,271.5C 149.353,269.369 149.686,267.369 152,265.5C 152.252,262.333 152.418,259.333 152.5,256.5C 149.21,254.402 148.544,251.568 150.5,248C 149.779,239.851 149.279,231.684 149,223.5C 147.904,225.889 147.071,228.389 146.5,231C 147.886,234.873 147.72,238.706 146,242.5C 145.667,241.5 145.333,240.5 145,239.5C 143.622,241.213 141.955,242.547 140,243.5C 139.696,241.559 138.863,239.893 137.5,238.5C 139.429,236.94 140.762,234.94 141.5,232.5C 138.053,230.535 136.053,227.535 135.5,223.5C 137.199,223.34 138.866,223.506 140.5,224C 141.029,226.429 142.363,228.262 144.5,229.5C 145.83,227.653 145.497,226.153 143.5,225C 145.985,221.998 146.152,218.831 144,215.5C 143.319,217.895 142.485,220.228 141.5,222.5C 140.914,222.291 140.414,221.957 140,221.5C 139.172,216.798 139.338,212.131 140.5,207.5C 142.382,208.093 144.215,208.76 146,209.5C 148.152,212.634 149.818,215.968 151,219.5C 151.309,218.234 151.809,217.067 152.5,216C 150.282,213.25 148.949,210.083 148.5,206.5C 146.929,207.309 145.262,207.643 143.5,207.5C 144.909,192.725 145.409,177.725 145,162.5C 144.075,163.047 143.242,163.713 142.5,164.5C 143.326,165.451 143.492,166.451 143,167.5C 141.187,165.375 139.353,163.375 137.5,161.5C 142.391,152.4 148.724,144.4 156.5,137.5 Z"/></g>
<g><path style="opacity:1" fill="#44c3ec" d="M 364.5,138.5 C 366.986,139.462 366.986,140.295 364.5,141C 369.383,142.511 373.55,145.344 377,149.5C 377.346,151.848 378.513,153.681 380.5,155C 378.964,156.599 378.464,158.433 379,160.5C 380.5,162.469 382.333,163.802 384.5,164.5C 383.392,168.477 384.725,171.643 388.5,174C 387.622,177.407 386.622,180.74 385.5,184C 386.336,186.49 387.002,188.99 387.5,191.5C 385.917,190.064 384.417,188.398 383,186.5C 383.419,182.145 383.253,177.812 382.5,173.5C 379.196,173.322 377.529,171.656 377.5,168.5C 381.311,168.404 381.311,167.738 377.5,166.5C 377.977,165.522 378.643,164.689 379.5,164C 375.408,163.292 373.408,164.792 373.5,168.5C 371.833,169.167 370.167,169.833 368.5,170.5C 369.747,172.042 369.747,173.542 368.5,175C 369.5,175.333 370.5,175.667 371.5,176C 369.996,177.491 369.163,179.324 369,181.5C 368.667,181.167 368.333,180.833 368,180.5C 367.667,182.167 367.333,183.833 367,185.5C 366.667,185.167 366.333,184.833 366,184.5C 365.333,185.833 364.667,187.167 364,188.5C 363.283,187.956 362.783,187.289 362.5,186.5C 363.468,184.393 363.802,182.059 363.5,179.5C 362.5,179.5 361.5,179.5 360.5,179.5C 359.769,184.889 358.103,185.389 355.5,181C 357.301,180.683 357.634,180.016 356.5,179C 357.973,178.29 358.64,177.124 358.5,175.5C 354.594,176.724 351.594,175.39 349.5,171.5C 348.311,170.571 346.978,170.238 345.5,170.5C 345.5,168.5 345.5,166.5 345.5,164.5C 343.62,164.771 342.287,164.104 341.5,162.5C 343.39,163.18 345.39,163.347 347.5,163C 348.212,164.425 348.379,165.925 348,167.5C 349,167.833 350,168.167 351,168.5C 351.218,165.574 351.718,162.74 352.5,160C 352.167,159.667 351.833,159.333 351.5,159C 353.127,159.43 354.627,159.596 356,159.5C 358.906,156.807 361.739,156.974 364.5,160C 363.216,161.297 363.383,162.464 365,163.5C 366.848,161.982 368.348,160.149 369.5,158C 367.675,156.534 367.175,154.701 368,152.5C 369.885,158.012 373.052,158.845 377.5,155C 376.09,154.632 375.09,153.799 374.5,152.5C 372.955,151.548 371.288,151.215 369.5,151.5C 369.5,150.167 369.5,148.833 369.5,147.5C 368.167,147.5 366.833,147.5 365.5,147.5C 365.657,146.127 365.49,144.793 365,143.5C 363.167,142.333 361.333,141.167 359.5,140C 361.382,139.802 363.048,139.302 364.5,138.5 Z"/></g>
<g><path style="opacity:1" fill="#064c87" d="M 137.5,161.5 C 139.353,163.375 141.187,165.375 143,167.5C 143.492,166.451 143.326,165.451 142.5,164.5C 143.242,163.713 144.075,163.047 145,162.5C 145.409,177.725 144.909,192.725 143.5,207.5C 145.262,207.643 146.929,207.309 148.5,206.5C 148.949,210.083 150.282,213.25 152.5,216C 151.809,217.067 151.309,218.234 151,219.5C 149.818,215.968 148.152,212.634 146,209.5C 144.215,208.76 142.382,208.093 140.5,207.5C 139.338,212.131 139.172,216.798 140,221.5C 140.414,221.957 140.914,222.291 141.5,222.5C 142.485,220.228 143.319,217.895 144,215.5C 146.152,218.831 145.985,221.998 143.5,225C 145.497,226.153 145.83,227.653 144.5,229.5C 142.363,228.262 141.029,226.429 140.5,224C 138.866,223.506 137.199,223.34 135.5,223.5C 134.909,222.849 134.243,222.182 133.5,221.5C 135.053,220.561 136.387,219.394 137.5,218C 136.902,216.699 135.902,215.865 134.5,215.5C 133.833,212.833 133.167,210.167 132.5,207.5C 131.19,212.88 130.856,218.213 131.5,223.5C 130.5,223.5 129.5,223.5 128.5,223.5C 128.343,218.265 128.176,212.932 128,207.5C 127.586,207.957 127.086,208.291 126.5,208.5C 125.955,213.978 125.121,219.311 124,224.5C 122.431,223.286 121.598,221.619 121.5,219.5C 122.01,217.461 122.01,215.628 121.5,214C 123.948,210.644 124.115,207.144 122,203.5C 121.329,204.252 120.496,204.586 119.5,204.5C 120.428,199.434 122.261,194.768 125,190.5C 125.424,194.19 126.258,194.357 127.5,191C 126.891,188.942 125.891,188.109 124.5,188.5C 125.348,186.591 125.682,184.591 125.5,182.5C 128.708,174.98 132.708,167.98 137.5,161.5 Z"/></g>
<g><path style="opacity:1" fill="#49c4eb" d="M 387.5,191.5 C 389.308,192.918 389.975,194.918 389.5,197.5C 388.178,197.33 387.011,197.663 386,198.5C 385.667,201.5 385.333,204.5 385,207.5C 383.829,205.411 382.496,203.411 381,201.5C 378.627,206.166 377.294,211.166 377,216.5C 376.023,215.226 375.189,215.226 374.5,216.5C 373.244,216.514 373.077,214.848 374,211.5C 371.848,208.366 370.182,205.032 369,201.5C 368.29,202.973 367.124,203.64 365.5,203.5C 364.489,200.468 363.322,197.468 362,194.5C 361.196,191.042 361.363,188.375 362.5,186.5C 362.783,187.289 363.283,187.956 364,188.5C 364.667,187.167 365.333,185.833 366,184.5C 366.333,184.833 366.667,185.167 367,185.5C 367.333,183.833 367.667,182.167 368,180.5C 368.333,180.833 368.667,181.167 369,181.5C 369.163,179.324 369.996,177.491 371.5,176C 370.5,175.667 369.5,175.333 368.5,175C 369.747,173.542 369.747,172.042 368.5,170.5C 370.167,169.833 371.833,169.167 373.5,168.5C 373.408,164.792 375.408,163.292 379.5,164C 378.643,164.689 377.977,165.522 377.5,166.5C 381.311,167.738 381.311,168.404 377.5,168.5C 377.529,171.656 379.196,173.322 382.5,173.5C 383.253,177.812 383.419,182.145 383,186.5C 384.417,188.398 385.917,190.064 387.5,191.5 Z"/></g>
<g><path style="opacity:1" fill="#03669e" d="M 260.5,230.5 C 260.5,231.5 260.5,232.5 260.5,233.5C 256.898,233.678 256.898,234.678 260.5,236.5C 257.077,240.765 255.41,240.099 255.5,234.5C 252.034,234.715 249.367,233.382 247.5,230.5C 248.311,229.784 248.978,228.95 249.5,228C 247.313,225.556 245.98,222.723 245.5,219.5C 245.649,217.68 246.316,216.18 247.5,215C 242.414,213.148 242.414,211.981 247.5,211.5C 247.5,210.5 247.5,209.5 247.5,208.5C 245.143,208.663 242.81,208.497 240.5,208C 239.333,207.5 238.5,206.667 238,205.5C 237.583,206.756 236.75,207.423 235.5,207.5C 240.746,196.667 246.746,186.334 253.5,176.5C 253.369,177.239 253.536,177.906 254,178.5C 255.666,177.66 255.833,178.16 254.5,180C 255.167,180.167 255.833,180.333 256.5,180.5C 258.915,177.92 261.749,175.92 265,174.5C 265.309,175.766 265.809,176.933 266.5,178C 265.776,181.808 265.776,185.808 266.5,190C 264.902,194.111 262.569,197.777 259.5,201C 261.068,203.631 260.568,205.797 258,207.5C 257.211,211.016 257.711,214.349 259.5,217.5C 258.963,218.741 258.296,219.908 257.5,221C 258.273,224.267 259.273,227.434 260.5,230.5 Z"/></g>
<g><path style="opacity:1" fill="#086ea5" d="M 275.5,183.5 C 274.957,183.56 274.624,183.893 274.5,184.5C 275.254,187.964 276.254,191.297 277.5,194.5C 275.531,197.874 276.531,199.54 280.5,199.5C 279.745,201.466 278.579,201.8 277,200.5C 276.71,202.952 276.044,205.285 275,207.5C 273.989,208.337 272.822,208.67 271.5,208.5C 271.48,210.143 272.147,211.476 273.5,212.5C 271.65,214.518 269.65,216.351 267.5,218C 267.983,222.402 267.983,226.902 267.5,231.5C 268.833,231.5 270.167,231.5 271.5,231.5C 271.5,232.5 271.5,233.5 271.5,234.5C 270.325,234.281 269.325,234.614 268.5,235.5C 269.806,236.912 270.64,238.579 271,240.5C 271.333,240.167 271.667,239.833 272,239.5C 272.755,242.303 272.422,244.97 271,247.5C 270.333,246.833 269.667,246.167 269,245.5C 268.82,247.488 268.986,249.488 269.5,251.5C 266.722,248.279 264.722,244.612 263.5,240.5C 263.357,238.738 263.691,237.071 264.5,235.5C 263.113,233.79 261.779,232.123 260.5,230.5C 259.273,227.434 258.273,224.267 257.5,221C 258.296,219.908 258.963,218.741 259.5,217.5C 257.711,214.349 257.211,211.016 258,207.5C 260.568,205.797 261.068,203.631 259.5,201C 262.569,197.777 264.902,194.111 266.5,190C 265.776,185.808 265.776,181.808 266.5,178C 265.809,176.933 265.309,175.766 265,174.5C 261.749,175.92 258.915,177.92 256.5,180.5C 255.833,180.333 255.167,180.167 254.5,180C 255.833,178.16 255.666,177.66 254,178.5C 253.536,177.906 253.369,177.239 253.5,176.5C 255.495,171.174 258.495,166.507 262.5,162.5C 267.582,168.989 271.915,175.989 275.5,183.5 Z"/></g>
<g><path style="opacity:1" fill="#4ec5eb" d="M 384.5,164.5 C 385.496,164.414 386.329,164.748 387,165.5C 397.859,183.705 404.359,203.039 406.5,223.5C 405.883,223.389 405.383,223.056 405,222.5C 404.105,218.79 403.105,215.123 402,211.5C 401.5,213.5 401,215.5 400.5,217.5C 400.986,221.182 401.319,224.849 401.5,228.5C 399.939,231.781 398.939,235.281 398.5,239C 399.378,244.201 399.544,249.701 399,255.5C 397.148,250.414 395.981,250.414 395.5,255.5C 393.408,255.439 391.908,254.439 391,252.5C 390.517,253.448 390.351,254.448 390.5,255.5C 389.448,255.649 388.448,255.483 387.5,255C 386.385,252.388 384.718,250.221 382.5,248.5C 381.833,250.833 381.167,253.167 380.5,255.5C 379.338,250.869 379.172,246.202 380,241.5C 380.333,241.167 380.667,240.833 381,240.5C 381.29,242.044 381.956,243.377 383,244.5C 384.281,240.319 384.281,235.986 383,231.5C 382.503,234.146 382.336,236.813 382.5,239.5C 381.5,239.5 380.5,239.5 379.5,239.5C 379.167,234.167 378.833,228.833 378.5,223.5C 377.5,223.5 376.5,223.5 375.5,223.5C 375.548,221.167 375.215,218.834 374.5,216.5C 375.189,215.226 376.023,215.226 377,216.5C 377.294,211.166 378.627,206.166 381,201.5C 382.496,203.411 383.829,205.411 385,207.5C 385.333,204.5 385.667,201.5 386,198.5C 387.011,197.663 388.178,197.33 389.5,197.5C 389.975,194.918 389.308,192.918 387.5,191.5C 387.002,188.99 386.336,186.49 385.5,184C 386.622,180.74 387.622,177.407 388.5,174C 384.725,171.643 383.392,168.477 384.5,164.5 Z"/></g>
<g><path style="opacity:1" fill="#0675ae" d="M 276.5,263.5 C 274.182,259.535 271.848,255.535 269.5,251.5C 268.986,249.488 268.82,247.488 269,245.5C 269.667,246.167 270.333,246.833 271,247.5C 272.422,244.97 272.755,242.303 272,239.5C 271.667,239.833 271.333,240.167 271,240.5C 270.64,238.579 269.806,236.912 268.5,235.5C 269.325,234.614 270.325,234.281 271.5,234.5C 271.5,233.5 271.5,232.5 271.5,231.5C 270.167,231.5 268.833,231.5 267.5,231.5C 267.983,226.902 267.983,222.402 267.5,218C 269.65,216.351 271.65,214.518 273.5,212.5C 272.147,211.476 271.48,210.143 271.5,208.5C 272.822,208.67 273.989,208.337 275,207.5C 276.044,205.285 276.71,202.952 277,200.5C 278.579,201.8 279.745,201.466 280.5,199.5C 280.706,197.451 281.539,197.117 283,198.5C 283.716,201.418 283.216,204.085 281.5,206.5C 282.074,209.321 283.408,211.654 285.5,213.5C 283.392,217.861 284.725,219.861 289.5,219.5C 289.34,217.801 289.506,216.134 290,214.5C 291.013,215.496 291.846,216.496 292.5,217.5C 292.41,219.425 291.41,220.592 289.5,221C 289.529,224.944 289.863,228.944 290.5,233C 290.095,233.945 289.428,234.612 288.5,235C 288.955,237.312 289.955,239.312 291.5,241C 288.822,245.23 288.156,249.73 289.5,254.5C 288.752,256.332 287.752,257.999 286.5,259.5C 287.953,261.467 288.953,263.633 289.5,266C 288.365,266.749 287.365,266.583 286.5,265.5C 284.736,262.038 282.569,262.038 280,265.5C 279,264.167 278,262.833 277,261.5C 276.536,262.094 276.369,262.761 276.5,263.5 Z"/></g>
<g><path style="opacity:1" fill="#53cbea" d="M 328.5,155.5 C 330.541,155.854 332.374,155.854 334,155.5C 334.36,157.421 335.194,159.088 336.5,160.5C 337.5,161.833 338.5,161.833 339.5,160.5C 340.522,160.855 341.189,161.522 341.5,162.5C 342.287,164.104 343.62,164.771 345.5,164.5C 345.5,166.5 345.5,168.5 345.5,170.5C 346.978,170.238 348.311,170.571 349.5,171.5C 351.594,175.39 354.594,176.724 358.5,175.5C 358.64,177.124 357.973,178.29 356.5,179C 357.634,180.016 357.301,180.683 355.5,181C 358.103,185.389 359.769,184.889 360.5,179.5C 361.5,179.5 362.5,179.5 363.5,179.5C 363.802,182.059 363.468,184.393 362.5,186.5C 361.363,188.375 361.196,191.042 362,194.5C 363.322,197.468 364.489,200.468 365.5,203.5C 367.124,203.64 368.29,202.973 369,201.5C 370.182,205.032 371.848,208.366 374,211.5C 373.077,214.848 373.244,216.514 374.5,216.5C 375.215,218.834 375.548,221.167 375.5,223.5C 374.402,224.601 374.235,225.934 375,227.5C 375.667,226.167 376.333,226.167 377,227.5C 377.167,231.5 377.333,235.5 377.5,239.5C 377.408,244.142 376.742,248.642 375.5,253C 376.502,254.766 376.168,256.433 374.5,258C 374.706,260.221 375.039,262.388 375.5,264.5C 374.52,265.981 373.353,267.315 372,268.5C 371.405,269.899 371.572,271.232 372.5,272.5C 371.261,274.311 370.594,276.311 370.5,278.5C 373.584,283.387 375.917,288.721 377.5,294.5C 379.523,296.853 381.523,299.186 383.5,301.5C 383.579,302.93 383.246,304.264 382.5,305.5C 383.752,307.001 384.752,308.668 385.5,310.5C 384.767,311.087 383.767,311.087 382.5,310.5C 376.414,299.989 370.08,289.656 363.5,279.5C 377.303,230.618 365.636,189.284 328.5,155.5 Z"/></g>
<g><path style="opacity:1" fill="#074b84" d="M 125.5,182.5 C 125.682,184.591 125.348,186.591 124.5,188.5C 125.891,188.109 126.891,188.942 127.5,191C 126.258,194.357 125.424,194.19 125,190.5C 122.261,194.768 120.428,199.434 119.5,204.5C 119.821,210.15 119.154,215.65 117.5,221C 119.252,227.118 120.585,233.285 121.5,239.5C 120.167,239.5 118.833,239.5 117.5,239.5C 117.17,245.868 117.504,252.202 118.5,258.5C 119.251,257.624 119.751,256.624 120,255.5C 121.72,258.143 122.554,261.476 122.5,265.5C 123.5,265.5 124.5,265.5 125.5,265.5C 125.022,268.278 126.022,270.278 128.5,271.5C 129.905,265.075 129.572,258.742 127.5,252.5C 127.202,249.397 128.535,247.73 131.5,247.5C 131.187,250.247 131.52,252.914 132.5,255.5C 133.357,254.264 134.023,252.931 134.5,251.5C 133.859,246.716 133.526,241.883 133.5,237C 133.507,232.114 134.174,227.614 135.5,223.5C 136.053,227.535 138.053,230.535 141.5,232.5C 140.762,234.94 139.429,236.94 137.5,238.5C 138.863,239.893 139.696,241.559 140,243.5C 141.955,242.547 143.622,241.213 145,239.5C 145.333,240.5 145.667,241.5 146,242.5C 147.72,238.706 147.886,234.873 146.5,231C 147.071,228.389 147.904,225.889 149,223.5C 149.279,231.684 149.779,239.851 150.5,248C 148.544,251.568 149.21,254.402 152.5,256.5C 152.418,259.333 152.252,262.333 152,265.5C 149.686,267.369 149.353,269.369 151,271.5C 151.5,270.333 152.333,269.5 153.5,269C 153.043,268.586 152.709,268.086 152.5,267.5C 153.68,265.546 154.346,263.379 154.5,261C 153.053,245.812 153.22,230.645 155,215.5C 155.377,214.058 156.21,213.058 157.5,212.5C 152.729,235.783 153.896,258.783 161,281.5C 165.178,288.528 169.345,295.528 173.5,302.5C 172.833,302.5 172.167,302.5 171.5,302.5C 169.848,295.867 168.182,295.867 166.5,302.5C 165.893,302.376 165.56,302.043 165.5,301.5C 166.528,299.201 166.528,296.701 165.5,294C 162.347,294.682 161.68,293.349 163.5,290C 161.111,284.614 157.611,280.114 153,276.5C 151.98,277.891 151.147,279.391 150.5,281C 148.866,281.494 147.199,281.66 145.5,281.5C 145.33,277.318 145.33,273.318 145.5,269.5C 145.154,268.304 144.654,268.304 144,269.5C 141.371,278.508 138.205,287.341 134.5,296C 135.602,299.473 136.602,302.973 137.5,306.5C 136.167,306.5 134.833,306.5 133.5,306.5C 133.5,305.5 133.5,304.5 133.5,303.5C 132.325,303.281 131.325,303.614 130.5,304.5C 132.623,306.745 133.623,309.412 133.5,312.5C 112.496,277.439 107.662,240.106 119,200.5C 120.877,194.279 123.044,188.279 125.5,182.5 Z"/></g>
<g><path style="opacity:1" fill="#05609b" d="M 260.5,230.5 C 261.779,232.123 263.113,233.79 264.5,235.5C 263.691,237.071 263.357,238.738 263.5,240.5C 262.883,240.389 262.383,240.056 262,239.5C 257.14,250.491 251.306,260.825 244.5,270.5C 242.914,268.919 241.914,266.919 241.5,264.5C 243.117,264.331 244.784,263.997 246.5,263.5C 248.294,260.013 249.628,256.346 250.5,252.5C 252.103,252.688 253.437,252.188 254.5,251C 252.575,251.135 250.575,251.302 248.5,251.5C 249.75,249.032 249.583,246.699 248,244.5C 247.333,247.167 246.667,247.167 246,244.5C 243.644,246.69 241.144,248.69 238.5,250.5C 237.201,249.91 236.368,248.91 236,247.5C 235.977,243.438 236.31,239.438 237,235.5C 234.824,235.012 232.991,234.012 231.5,232.5C 232.402,229.96 233.402,227.46 234.5,225C 234.355,224.228 234.022,223.561 233.5,223C 235.227,221.611 236.561,219.944 237.5,218C 236.615,214.822 234.782,213.989 232,215.5C 228.825,219.474 227.158,223.807 227,228.5C 223.401,231.85 220.234,235.516 217.5,239.5C 222.997,228.502 228.997,217.835 235.5,207.5C 236.75,207.423 237.583,206.756 238,205.5C 238.5,206.667 239.333,207.5 240.5,208C 242.81,208.497 245.143,208.663 247.5,208.5C 247.5,209.5 247.5,210.5 247.5,211.5C 242.414,211.981 242.414,213.148 247.5,215C 246.316,216.18 245.649,217.68 245.5,219.5C 245.98,222.723 247.313,225.556 249.5,228C 248.978,228.95 248.311,229.784 247.5,230.5C 249.367,233.382 252.034,234.715 255.5,234.5C 255.41,240.099 257.077,240.765 260.5,236.5C 256.898,234.678 256.898,233.678 260.5,233.5C 260.5,232.5 260.5,231.5 260.5,230.5 Z"/></g>
<g><path style="opacity:1" fill="#045b99" d="M 244.5,270.5 C 241.5,275.167 238.5,279.833 235.5,284.5C 234.876,284.083 234.543,283.416 234.5,282.5C 236.556,279.555 238.223,276.388 239.5,273C 239.167,272.5 238.833,272 238.5,271.5C 237.673,273.162 236.507,274.495 235,275.5C 234,274.167 233,274.167 232,275.5C 232.148,274.175 231.982,273.008 231.5,272C 233.087,271.138 234.754,270.471 236.5,270C 238.388,266.029 237.054,263.863 232.5,263.5C 231.614,264.325 231.281,265.325 231.5,266.5C 230.07,266.579 228.736,266.246 227.5,265.5C 226.132,262.11 224.799,258.776 223.5,255.5C 224.833,255.5 226.167,255.5 227.5,255.5C 226.361,252.996 225.694,250.33 225.5,247.5C 224.448,247.649 223.448,247.483 222.5,247C 223.574,246.261 224.241,245.261 224.5,244C 223.503,242.404 222.337,240.904 221,239.5C 217.975,241.361 215.475,243.694 213.5,246.5C 214.079,243.669 215.412,241.336 217.5,239.5C 220.234,235.516 223.401,231.85 227,228.5C 227.158,223.807 228.825,219.474 232,215.5C 234.782,213.989 236.615,214.822 237.5,218C 236.561,219.944 235.227,221.611 233.5,223C 234.022,223.561 234.355,224.228 234.5,225C 233.402,227.46 232.402,229.96 231.5,232.5C 232.991,234.012 234.824,235.012 237,235.5C 236.31,239.438 235.977,243.438 236,247.5C 236.368,248.91 237.201,249.91 238.5,250.5C 241.144,248.69 243.644,246.69 246,244.5C 246.667,247.167 247.333,247.167 248,244.5C 249.583,246.699 249.75,249.032 248.5,251.5C 250.575,251.302 252.575,251.135 254.5,251C 253.437,252.188 252.103,252.688 250.5,252.5C 249.628,256.346 248.294,260.013 246.5,263.5C 244.784,263.997 243.117,264.331 241.5,264.5C 241.914,266.919 242.914,268.919 244.5,270.5 Z"/></g>
<g><path style="opacity:1" fill="#074985" d="M 135.5,223.5 C 134.174,227.614 133.507,232.114 133.5,237C 133.526,241.883 133.859,246.716 134.5,251.5C 134.023,252.931 133.357,254.264 132.5,255.5C 131.52,252.914 131.187,250.247 131.5,247.5C 128.535,247.73 127.202,249.397 127.5,252.5C 129.572,258.742 129.905,265.075 128.5,271.5C 126.022,270.278 125.022,268.278 125.5,265.5C 124.5,265.5 123.5,265.5 122.5,265.5C 122.554,261.476 121.72,258.143 120,255.5C 119.751,256.624 119.251,257.624 118.5,258.5C 117.504,252.202 117.17,245.868 117.5,239.5C 118.833,239.5 120.167,239.5 121.5,239.5C 120.585,233.285 119.252,227.118 117.5,221C 119.154,215.65 119.821,210.15 119.5,204.5C 120.496,204.586 121.329,204.252 122,203.5C 124.115,207.144 123.948,210.644 121.5,214C 122.01,215.628 122.01,217.461 121.5,219.5C 121.598,221.619 122.431,223.286 124,224.5C 125.121,219.311 125.955,213.978 126.5,208.5C 127.086,208.291 127.586,207.957 128,207.5C 128.176,212.932 128.343,218.265 128.5,223.5C 129.5,223.5 130.5,223.5 131.5,223.5C 130.856,218.213 131.19,212.88 132.5,207.5C 133.167,210.167 133.833,212.833 134.5,215.5C 135.902,215.865 136.902,216.699 137.5,218C 136.387,219.394 135.053,220.561 133.5,221.5C 134.243,222.182 134.909,222.849 135.5,223.5 Z"/></g>
<g><path style="opacity:1" fill="#0c7fb5" d="M 275.5,183.5 C 282.269,193.369 288.269,203.703 293.5,214.5C 296.106,222.141 297.94,230.141 299,238.5C 301.995,242.522 302.495,246.522 300.5,250.5C 301.5,250.5 302.5,250.5 303.5,250.5C 303.108,253.315 302.108,255.815 300.5,258C 300.585,259.107 300.919,260.107 301.5,261C 298.745,265.611 296.578,270.444 295,275.5C 294.111,274.112 293.611,274.278 293.5,276C 294.625,277.963 295.959,279.796 297.5,281.5C 296.091,283.626 294.424,283.96 292.5,282.5C 289.868,282.196 287.535,280.863 285.5,278.5C 282.263,273.701 279.263,268.701 276.5,263.5C 276.369,262.761 276.536,262.094 277,261.5C 278,262.833 279,264.167 280,265.5C 282.569,262.038 284.736,262.038 286.5,265.5C 287.365,266.583 288.365,266.749 289.5,266C 288.953,263.633 287.953,261.467 286.5,259.5C 287.752,257.999 288.752,256.332 289.5,254.5C 288.156,249.73 288.822,245.23 291.5,241C 289.955,239.312 288.955,237.312 288.5,235C 289.428,234.612 290.095,233.945 290.5,233C 289.863,228.944 289.529,224.944 289.5,221C 291.41,220.592 292.41,219.425 292.5,217.5C 291.846,216.496 291.013,215.496 290,214.5C 289.506,216.134 289.34,217.801 289.5,219.5C 284.725,219.861 283.392,217.861 285.5,213.5C 283.408,211.654 282.074,209.321 281.5,206.5C 283.216,204.085 283.716,201.418 283,198.5C 281.539,197.117 280.706,197.451 280.5,199.5C 276.531,199.54 275.531,197.874 277.5,194.5C 276.254,191.297 275.254,187.964 274.5,184.5C 274.624,183.893 274.957,183.56 275.5,183.5 Z"/></g>
<g><path style="opacity:1" fill="#045492" d="M 235.5,284.5 C 233.735,287.709 231.735,290.709 229.5,293.5C 226.629,294.986 225.295,293.986 225.5,290.5C 224.5,290.5 223.5,290.5 222.5,290.5C 222.5,289.5 222.5,288.5 222.5,287.5C 220.61,287.703 219.11,287.037 218,285.5C 217.39,279.004 215.39,273.004 212,267.5C 211.259,266.359 210.425,266.359 209.5,267.5C 208.459,265.009 207.626,265.009 207,267.5C 206.451,265.24 205.284,263.574 203.5,262.5C 206.472,256.878 209.805,251.545 213.5,246.5C 215.475,243.694 217.975,241.361 221,239.5C 222.337,240.904 223.503,242.404 224.5,244C 224.241,245.261 223.574,246.261 222.5,247C 223.448,247.483 224.448,247.649 225.5,247.5C 225.694,250.33 226.361,252.996 227.5,255.5C 226.167,255.5 224.833,255.5 223.5,255.5C 224.799,258.776 226.132,262.11 227.5,265.5C 228.736,266.246 230.07,266.579 231.5,266.5C 231.281,265.325 231.614,264.325 232.5,263.5C 237.054,263.863 238.388,266.029 236.5,270C 234.754,270.471 233.087,271.138 231.5,272C 231.982,273.008 232.148,274.175 232,275.5C 233,274.167 234,274.167 235,275.5C 236.507,274.495 237.673,273.162 238.5,271.5C 238.833,272 239.167,272.5 239.5,273C 238.223,276.388 236.556,279.555 234.5,282.5C 234.543,283.416 234.876,284.083 235.5,284.5 Z"/></g>
<g><path style="opacity:1" fill="#4ec4e6" d="M 406.5,223.5 C 408.405,237.744 407.738,251.744 404.5,265.5C 406.752,269.321 405.752,271.321 401.5,271.5C 401.895,275.185 402.062,278.852 402,282.5C 399.073,278.005 398.906,273.005 401.5,267.5C 399.56,262.07 398.226,262.237 397.5,268C 397.833,269 398.167,270 398.5,271C 394.868,277.688 392.368,284.521 391,291.5C 390.259,290.359 389.425,290.359 388.5,291.5C 387.198,295.113 385.531,298.446 383.5,301.5C 381.523,299.186 379.523,296.853 377.5,294.5C 375.917,288.721 373.584,283.387 370.5,278.5C 370.594,276.311 371.261,274.311 372.5,272.5C 371.572,271.232 371.405,269.899 372,268.5C 373.353,267.315 374.52,265.981 375.5,264.5C 375.039,262.388 374.706,260.221 374.5,258C 376.168,256.433 376.502,254.766 375.5,253C 376.742,248.642 377.408,244.142 377.5,239.5C 377.333,235.5 377.167,231.5 377,227.5C 376.333,226.167 375.667,226.167 375,227.5C 374.235,225.934 374.402,224.601 375.5,223.5C 376.5,223.5 377.5,223.5 378.5,223.5C 378.833,228.833 379.167,234.167 379.5,239.5C 380.5,239.5 381.5,239.5 382.5,239.5C 382.336,236.813 382.503,234.146 383,231.5C 384.281,235.986 384.281,240.319 383,244.5C 381.956,243.377 381.29,242.044 381,240.5C 380.667,240.833 380.333,241.167 380,241.5C 379.172,246.202 379.338,250.869 380.5,255.5C 381.167,253.167 381.833,250.833 382.5,248.5C 384.718,250.221 386.385,252.388 387.5,255C 388.448,255.483 389.448,255.649 390.5,255.5C 390.351,254.448 390.517,253.448 391,252.5C 391.908,254.439 393.408,255.439 395.5,255.5C 395.981,250.414 397.148,250.414 399,255.5C 399.544,249.701 399.378,244.201 398.5,239C 398.939,235.281 399.939,231.781 401.5,228.5C 401.319,224.849 400.986,221.182 400.5,217.5C 401,215.5 401.5,213.5 402,211.5C 403.105,215.123 404.105,218.79 405,222.5C 405.383,223.056 405.883,223.389 406.5,223.5 Z"/></g>
<g><path style="opacity:1" fill="#0d88bf" d="M 293.5,214.5 C 299.339,224.175 304.672,234.175 309.5,244.5C 309.439,247.05 308.106,248.55 305.5,249C 307.689,251.568 310.189,253.735 313,255.5C 313.743,257.441 313.576,259.274 312.5,261C 313.381,261.708 314.047,262.542 314.5,263.5C 316.084,266.136 315.751,268.47 313.5,270.5C 314.465,271.914 315.465,272.747 316.5,273C 315.933,275.682 314.599,277.849 312.5,279.5C 314.139,282.04 313.806,284.207 311.5,286C 312.451,286.718 312.617,287.551 312,288.5C 310.938,287.903 309.772,287.57 308.5,287.5C 306.074,288.022 304.24,289.355 303,291.5C 301.7,290.293 300.2,289.626 298.5,289.5C 298.719,288.325 298.386,287.325 297.5,286.5C 295.581,285.388 293.914,284.054 292.5,282.5C 294.424,283.96 296.091,283.626 297.5,281.5C 295.959,279.796 294.625,277.963 293.5,276C 293.611,274.278 294.111,274.112 295,275.5C 296.578,270.444 298.745,265.611 301.5,261C 300.919,260.107 300.585,259.107 300.5,258C 302.108,255.815 303.108,253.315 303.5,250.5C 302.5,250.5 301.5,250.5 300.5,250.5C 302.495,246.522 301.995,242.522 299,238.5C 297.94,230.141 296.106,222.141 293.5,214.5 Z"/></g>
<g><path style="opacity:1" fill="#054f8c" d="M 203.5,262.5 C 205.284,263.574 206.451,265.24 207,267.5C 207.626,265.009 208.459,265.009 209.5,267.5C 210.425,266.359 211.259,266.359 212,267.5C 215.39,273.004 217.39,279.004 218,285.5C 219.11,287.037 220.61,287.703 222.5,287.5C 222.5,288.5 222.5,289.5 222.5,290.5C 223.5,290.5 224.5,290.5 225.5,290.5C 225.295,293.986 226.629,294.986 229.5,293.5C 228.404,296.032 227.071,298.365 225.5,300.5C 223.364,301.37 221.531,302.703 220,304.5C 218.978,303.646 218.145,302.646 217.5,301.5C 218.485,299.902 218.651,298.235 218,296.5C 217.586,296.957 217.086,297.291 216.5,297.5C 214.367,295.061 211.867,294.394 209,295.5C 207.775,295.138 206.609,294.638 205.5,294C 206.578,293.326 207.245,292.326 207.5,291C 206.833,289.333 206.167,287.667 205.5,286C 207.775,282.148 207.941,278.315 206,274.5C 205.503,277.146 205.336,279.813 205.5,282.5C 200.043,281.009 197.709,277.342 198.5,271.5C 199.738,268.262 201.404,265.262 203.5,262.5 Z"/></g>
<g><path style="opacity:1" fill="#044e8c" d="M 165.5,301.5 C 164.167,301.5 162.833,301.5 161.5,301.5C 161.66,299.801 161.494,298.134 161,296.5C 159.625,298.937 159.125,301.603 159.5,304.5C 157.774,304.185 156.107,304.019 154.5,304C 155.167,309 155.833,314 156.5,319C 156.167,319.333 155.833,319.667 155.5,320C 159.125,322.206 160.292,325.373 159,329.5C 157.638,330.925 156.138,331.758 154.5,332C 155.76,330.186 155.76,328.353 154.5,326.5C 153.914,326.709 153.414,327.043 153,327.5C 152.581,326.328 151.915,325.328 151,324.5C 148.648,326.674 147.481,329.341 147.5,332.5C 141.673,326.668 137.006,320.002 133.5,312.5C 133.623,309.412 132.623,306.745 130.5,304.5C 131.325,303.614 132.325,303.281 133.5,303.5C 133.5,304.5 133.5,305.5 133.5,306.5C 134.833,306.5 136.167,306.5 137.5,306.5C 136.602,302.973 135.602,299.473 134.5,296C 138.205,287.341 141.371,278.508 144,269.5C 144.654,268.304 145.154,268.304 145.5,269.5C 145.33,273.318 145.33,277.318 145.5,281.5C 147.199,281.66 148.866,281.494 150.5,281C 151.147,279.391 151.98,277.891 153,276.5C 157.611,280.114 161.111,284.614 163.5,290C 161.68,293.349 162.347,294.682 165.5,294C 166.528,296.701 166.528,299.201 165.5,301.5 Z"/></g>
<g><path style="opacity:1" fill="#60c5eb" d="M 360.5,131.5 C 381.761,149.652 396.261,172.318 404,199.5C 412.152,230.094 411.152,260.094 401,289.5C 397.011,298.82 392.011,307.487 386,315.5C 384.824,313.804 383.657,312.138 382.5,310.5C 383.767,311.087 384.767,311.087 385.5,310.5C 384.752,308.668 383.752,307.001 382.5,305.5C 383.246,304.264 383.579,302.93 383.5,301.5C 385.531,298.446 387.198,295.113 388.5,291.5C 389.425,290.359 390.259,290.359 391,291.5C 392.368,284.521 394.868,277.688 398.5,271C 398.167,270 397.833,269 397.5,268C 398.226,262.237 399.56,262.07 401.5,267.5C 398.906,273.005 399.073,278.005 402,282.5C 402.062,278.852 401.895,275.185 401.5,271.5C 405.752,271.321 406.752,269.321 404.5,265.5C 407.738,251.744 408.405,237.744 406.5,223.5C 404.359,203.039 397.859,183.705 387,165.5C 386.329,164.748 385.496,164.414 384.5,164.5C 382.333,163.802 380.5,162.469 379,160.5C 378.464,158.433 378.964,156.599 380.5,155C 378.513,153.681 377.346,151.848 377,149.5C 373.55,145.344 369.383,142.511 364.5,141C 366.986,140.295 366.986,139.462 364.5,138.5C 362.902,136.302 361.569,133.969 360.5,131.5 Z"/></g>
<g><path style="opacity:1" fill="#0b8ec1" d="M 314.5,263.5 C 316.167,263.5 317.833,263.5 319.5,263.5C 319.579,265.666 320.246,267.666 321.5,269.5C 319.773,271.243 319.106,273.076 319.5,275C 321.104,277.615 322.437,280.448 323.5,283.5C 323.333,284.167 323.167,284.833 323,285.5C 322.167,284.5 321.333,283.5 320.5,282.5C 319.207,285.206 319.541,287.706 321.5,290C 318.932,292.302 317.266,295.135 316.5,298.5C 318.53,303.221 319.863,307.888 320.5,312.5C 319.214,314.571 317.547,314.904 315.5,313.5C 316.96,310.971 317.46,308.304 317,305.5C 311.796,305.777 310.296,308.277 312.5,313C 312.167,313.833 311.833,314.667 311.5,315.5C 309.953,314.232 308.953,312.565 308.5,310.5C 305.453,309.125 304.12,306.792 304.5,303.5C 303.041,303.433 301.708,303.766 300.5,304.5C 295.5,295.833 290.5,287.167 285.5,278.5C 287.535,280.863 289.868,282.196 292.5,282.5C 293.914,284.054 295.581,285.388 297.5,286.5C 298.386,287.325 298.719,288.325 298.5,289.5C 300.2,289.626 301.7,290.293 303,291.5C 304.24,289.355 306.074,288.022 308.5,287.5C 309.772,287.57 310.938,287.903 312,288.5C 312.617,287.551 312.451,286.718 311.5,286C 313.806,284.207 314.139,282.04 312.5,279.5C 314.599,277.849 315.933,275.682 316.5,273C 315.465,272.747 314.465,271.914 313.5,270.5C 315.751,268.47 316.084,266.136 314.5,263.5 Z"/></g>
<g><path style="opacity:1" fill="#0f98ca" d="M 309.5,244.5 C 315.669,254.167 321.336,264.167 326.5,274.5C 325.85,274.196 325.183,273.863 324.5,273.5C 323.548,275.045 323.215,276.712 323.5,278.5C 324.822,278.33 325.989,278.663 327,279.5C 328.467,282.784 328.301,285.784 326.5,288.5C 327.816,289.807 328.816,291.307 329.5,293C 328.742,295.405 327.408,297.905 325.5,300.5C 327.178,302.703 328.178,305.203 328.5,308C 328.223,309.892 327.223,311.225 325.5,312C 326.357,312.689 327.023,313.522 327.5,314.5C 326.249,315.631 325.249,316.964 324.5,318.5C 326.352,322.281 325.518,325.281 322,327.5C 321.055,327.095 320.388,326.428 320,325.5C 319.82,327.488 319.986,329.488 320.5,331.5C 319.5,331.5 318.5,331.5 317.5,331.5C 317.5,332.833 317.5,334.167 317.5,335.5C 311.581,325.33 305.914,314.997 300.5,304.5C 301.708,303.766 303.041,303.433 304.5,303.5C 304.12,306.792 305.453,309.125 308.5,310.5C 308.953,312.565 309.953,314.232 311.5,315.5C 311.833,314.667 312.167,313.833 312.5,313C 310.296,308.277 311.796,305.777 317,305.5C 317.46,308.304 316.96,310.971 315.5,313.5C 317.547,314.904 319.214,314.571 320.5,312.5C 319.863,307.888 318.53,303.221 316.5,298.5C 317.266,295.135 318.932,292.302 321.5,290C 319.541,287.706 319.207,285.206 320.5,282.5C 321.333,283.5 322.167,284.5 323,285.5C 323.167,284.833 323.333,284.167 323.5,283.5C 322.437,280.448 321.104,277.615 319.5,275C 319.106,273.076 319.773,271.243 321.5,269.5C 320.246,267.666 319.579,265.666 319.5,263.5C 317.833,263.5 316.167,263.5 314.5,263.5C 314.047,262.542 313.381,261.708 312.5,261C 313.576,259.274 313.743,257.441 313,255.5C 310.189,253.735 307.689,251.568 305.5,249C 308.106,248.55 309.439,247.05 309.5,244.5 Z"/></g>
<g><path style="opacity:1" fill="#074a85" d="M 198.5,271.5 C 197.709,277.342 200.043,281.009 205.5,282.5C 205.336,279.813 205.503,277.146 206,274.5C 207.941,278.315 207.775,282.148 205.5,286C 206.167,287.667 206.833,289.333 207.5,291C 207.245,292.326 206.578,293.326 205.5,294C 206.609,294.638 207.775,295.138 209,295.5C 211.867,294.394 214.367,295.061 216.5,297.5C 217.086,297.291 217.586,296.957 218,296.5C 218.651,298.235 218.485,299.902 217.5,301.5C 218.145,302.646 218.978,303.646 220,304.5C 221.531,302.703 223.364,301.37 225.5,300.5C 223.678,303.472 221.844,306.472 220,309.5C 219.501,313.821 219.334,318.154 219.5,322.5C 215.089,322.797 211.089,321.631 207.5,319C 199.337,311.837 191.504,304.337 184,296.5C 183.333,295.167 183.333,293.833 184,292.5C 189.087,285.597 193.92,278.597 198.5,271.5 Z"/></g>
<g><path style="opacity:1" fill="#0d9fd1" d="M 326.5,274.5 C 331.403,281.964 336.07,289.631 340.5,297.5C 338.522,295.609 336.522,293.609 334.5,291.5C 333.643,292.736 332.977,294.069 332.5,295.5C 333.393,298.084 333.726,300.751 333.5,303.5C 335.346,303.222 336.68,303.889 337.5,305.5C 336.019,306.48 334.685,307.647 333.5,309C 334.197,311.159 333.863,313.326 332.5,315.5C 332.833,315.833 333.167,316.167 333.5,316.5C 334.251,315.624 334.751,314.624 335,313.5C 335.38,316.768 334.546,319.768 332.5,322.5C 333.09,323.799 334.09,324.632 335.5,325C 334.328,325.419 333.328,326.085 332.5,327C 335.122,330.535 335.122,334.035 332.5,337.5C 333.09,338.799 334.09,339.632 335.5,340C 334.748,340.671 334.414,341.504 334.5,342.5C 333.989,344.195 333.322,345.861 332.5,347.5C 330.424,345.532 329.09,343.532 328.5,341.5C 327.201,342.09 326.368,343.09 326,344.5C 324.764,343.601 323.93,342.434 323.5,341C 325.013,339.121 325.679,336.954 325.5,334.5C 323.088,334.244 321.421,335.244 320.5,337.5C 319.735,336.388 318.735,335.721 317.5,335.5C 317.5,334.167 317.5,332.833 317.5,331.5C 318.5,331.5 319.5,331.5 320.5,331.5C 319.986,329.488 319.82,327.488 320,325.5C 320.388,326.428 321.055,327.095 322,327.5C 325.518,325.281 326.352,322.281 324.5,318.5C 325.249,316.964 326.249,315.631 327.5,314.5C 327.023,313.522 326.357,312.689 325.5,312C 327.223,311.225 328.223,309.892 328.5,308C 328.178,305.203 327.178,302.703 325.5,300.5C 327.408,297.905 328.742,295.405 329.5,293C 328.816,291.307 327.816,289.807 326.5,288.5C 328.301,285.784 328.467,282.784 327,279.5C 325.989,278.663 324.822,278.33 323.5,278.5C 323.215,276.712 323.548,275.045 324.5,273.5C 325.183,273.863 325.85,274.196 326.5,274.5 Z"/></g>
<g><path style="opacity:1" fill="#035493" d="M 165.5,301.5 C 165.56,302.043 165.893,302.376 166.5,302.5C 168.182,295.867 169.848,295.867 171.5,302.5C 171.047,303.458 170.381,304.292 169.5,305C 170.56,307.737 171.394,310.57 172,313.5C 173.307,314.772 174.807,315.772 176.5,316.5C 173.442,318.269 171.609,320.936 171,324.5C 169.745,325.211 168.579,326.044 167.5,327C 172.833,330 172.833,333 167.5,336C 168.708,338.25 170.041,340.417 171.5,342.5C 169.922,343.298 168.256,343.798 166.5,344C 167.328,344.915 168.328,345.581 169.5,346C 168.975,346.692 168.308,347.192 167.5,347.5C 165.556,346.811 163.556,346.311 161.5,346C 158.706,343.37 156.039,340.537 153.5,337.5C 152.583,336.873 151.583,336.539 150.5,336.5C 149.5,335.167 148.5,333.833 147.5,332.5C 147.481,329.341 148.648,326.674 151,324.5C 151.915,325.328 152.581,326.328 153,327.5C 153.414,327.043 153.914,326.709 154.5,326.5C 155.76,328.353 155.76,330.186 154.5,332C 156.138,331.758 157.638,330.925 159,329.5C 160.292,325.373 159.125,322.206 155.5,320C 155.833,319.667 156.167,319.333 156.5,319C 155.833,314 155.167,309 154.5,304C 156.107,304.019 157.774,304.185 159.5,304.5C 159.125,301.603 159.625,298.937 161,296.5C 161.494,298.134 161.66,299.801 161.5,301.5C 162.833,301.5 164.167,301.5 165.5,301.5 Z"/></g>
<g><path style="opacity:1" fill="#075a99" d="M 171.5,302.5 C 172.167,302.5 172.833,302.5 173.5,302.5C 179.139,308.474 184.805,314.474 190.5,320.5C 189.548,321.452 188.548,322.452 187.5,323.5C 188.682,325.985 188.348,328.319 186.5,330.5C 184.538,329.146 183.538,329.813 183.5,332.5C 184.153,338.534 184.487,344.534 184.5,350.5C 183.271,351.281 181.938,351.781 180.5,352C 181.258,353.364 180.758,354.531 179,355.5C 177.649,354.039 176.149,352.706 174.5,351.5C 172.855,352.696 171.189,353.696 169.5,354.5C 162.536,349.203 156.202,343.203 150.5,336.5C 151.583,336.539 152.583,336.873 153.5,337.5C 156.039,340.537 158.706,343.37 161.5,346C 163.556,346.311 165.556,346.811 167.5,347.5C 168.308,347.192 168.975,346.692 169.5,346C 168.328,345.581 167.328,344.915 166.5,344C 168.256,343.798 169.922,343.298 171.5,342.5C 170.041,340.417 168.708,338.25 167.5,336C 172.833,333 172.833,330 167.5,327C 168.579,326.044 169.745,325.211 171,324.5C 171.609,320.936 173.442,318.269 176.5,316.5C 174.807,315.772 173.307,314.772 172,313.5C 171.394,310.57 170.56,307.737 169.5,305C 170.381,304.292 171.047,303.458 171.5,302.5 Z"/></g>
<g><path style="opacity:1" fill="#05609e" d="M 190.5,320.5 C 194.39,323.271 198.057,326.271 201.5,329.5C 199.227,327.961 197.227,328.294 195.5,330.5C 197.26,333.926 199.426,334.259 202,331.5C 202.5,332 203,332.5 203.5,333C 199.403,335.014 199.07,337.014 202.5,339C 201.552,339.483 200.552,339.649 199.5,339.5C 199.663,341.857 199.497,344.19 199,346.5C 194.704,348.511 194.537,351.011 198.5,354C 196.287,356.663 196.287,359.496 198.5,362.5C 196.927,363.66 195.261,364.66 193.5,365.5C 191.167,365.167 190.833,364.167 192.5,362.5C 192.023,361.522 191.357,360.689 190.5,360C 191.731,358.817 191.731,357.651 190.5,356.5C 186.683,358.037 186.017,360.204 188.5,363C 187.944,363.383 187.611,363.883 187.5,364.5C 185.742,364.123 184.075,363.456 182.5,362.5C 181.893,362.624 181.56,362.957 181.5,363.5C 177.5,360.5 173.5,357.5 169.5,354.5C 171.189,353.696 172.855,352.696 174.5,351.5C 176.149,352.706 177.649,354.039 179,355.5C 180.758,354.531 181.258,353.364 180.5,352C 181.938,351.781 183.271,351.281 184.5,350.5C 184.487,344.534 184.153,338.534 183.5,332.5C 183.538,329.813 184.538,329.146 186.5,330.5C 188.348,328.319 188.682,325.985 187.5,323.5C 188.548,322.452 189.548,321.452 190.5,320.5 Z"/></g>
<g><path style="opacity:1" fill="#0da7d9" d="M 340.5,297.5 C 345.622,304.307 349.956,311.64 353.5,319.5C 351.983,319.489 350.816,318.823 350,317.5C 348.978,318.354 348.145,319.354 347.5,320.5C 348.544,322.768 348.711,325.101 348,327.5C 347.465,325.729 346.631,325.396 345.5,326.5C 347.99,329.832 349.323,333.332 349.5,337C 347.687,340.548 347.02,344.048 347.5,347.5C 341.924,345.85 341.257,347.517 345.5,352.5C 342.895,355.089 342.895,357.589 345.5,360C 344.975,360.692 344.308,361.192 343.5,361.5C 341.511,359.469 339.344,358.803 337,359.5C 335.405,357.575 335.238,355.575 336.5,353.5C 335.509,352.335 334.509,351.168 333.5,350C 335.493,347.579 335.826,345.079 334.5,342.5C 334.414,341.504 334.748,340.671 335.5,340C 334.09,339.632 333.09,338.799 332.5,337.5C 335.122,334.035 335.122,330.535 332.5,327C 333.328,326.085 334.328,325.419 335.5,325C 334.09,324.632 333.09,323.799 332.5,322.5C 334.546,319.768 335.38,316.768 335,313.5C 334.751,314.624 334.251,315.624 333.5,316.5C 333.167,316.167 332.833,315.833 332.5,315.5C 333.863,313.326 334.197,311.159 333.5,309C 334.685,307.647 336.019,306.48 337.5,305.5C 336.68,303.889 335.346,303.222 333.5,303.5C 333.726,300.751 333.393,298.084 332.5,295.5C 332.977,294.069 333.643,292.736 334.5,291.5C 336.522,293.609 338.522,295.609 340.5,297.5 Z"/></g>
<g><path style="opacity:1" fill="#0567a4" d="M 201.5,329.5 C 207.048,332.773 212.714,335.773 218.5,338.5C 217.048,339.302 215.382,339.802 213.5,340C 217.185,340.914 216.852,341.581 212.5,342C 213.966,342.635 215.3,343.469 216.5,344.5C 217.086,344.291 217.586,343.957 218,343.5C 220.071,345.455 220.738,347.788 220,350.5C 217.281,349.556 214.448,349.223 211.5,349.5C 211.565,354.907 211.898,360.074 212.5,365C 212.231,366.607 211.397,367.774 210,368.5C 208.506,367.253 207.006,367.253 205.5,368.5C 206.859,372.259 205.526,373.759 201.5,373C 199.024,371.691 197.024,369.858 195.5,367.5C 192.833,366.366 190.167,365.366 187.5,364.5C 187.611,363.883 187.944,363.383 188.5,363C 186.017,360.204 186.683,358.037 190.5,356.5C 191.731,357.651 191.731,358.817 190.5,360C 191.357,360.689 192.023,361.522 192.5,362.5C 190.833,364.167 191.167,365.167 193.5,365.5C 195.261,364.66 196.927,363.66 198.5,362.5C 196.287,359.496 196.287,356.663 198.5,354C 194.537,351.011 194.704,348.511 199,346.5C 199.497,344.19 199.663,341.857 199.5,339.5C 200.552,339.649 201.552,339.483 202.5,339C 199.07,337.014 199.403,335.014 203.5,333C 203,332.5 202.5,332 202,331.5C 199.426,334.259 197.26,333.926 195.5,330.5C 197.227,328.294 199.227,327.961 201.5,329.5 Z"/></g>
<g><path style="opacity:1" fill="#15aad5" d="M 334.5,342.5 C 335.826,345.079 335.493,347.579 333.5,350C 334.509,351.168 335.509,352.335 336.5,353.5C 335.238,355.575 335.405,357.575 337,359.5C 339.344,358.803 341.511,359.469 343.5,361.5C 344.308,361.192 344.975,360.692 345.5,360C 342.895,357.589 342.895,355.089 345.5,352.5C 341.257,347.517 341.924,345.85 347.5,347.5C 346.146,350.784 346.48,353.784 348.5,356.5C 345.931,358.976 345.931,361.476 348.5,364C 347.541,366.12 347.374,368.287 348,370.5C 349.322,373.468 350.489,376.468 351.5,379.5C 349.75,380.742 348.083,382.242 346.5,384C 347.5,384.333 348.5,384.667 349.5,385C 348.244,385.417 347.577,386.25 347.5,387.5C 337.141,370.45 327.141,353.117 317.5,335.5C 318.735,335.721 319.735,336.388 320.5,337.5C 321.421,335.244 323.088,334.244 325.5,334.5C 325.679,336.954 325.013,339.121 323.5,341C 323.93,342.434 324.764,343.601 326,344.5C 326.368,343.09 327.201,342.09 328.5,341.5C 329.09,343.532 330.424,345.532 332.5,347.5C 333.322,345.861 333.989,344.195 334.5,342.5 Z"/></g>
<g><path style="opacity:1" fill="#0a72ad" d="M 218.5,338.5 C 224.252,340.527 229.919,342.527 235.5,344.5C 233.972,344.517 233.472,345.184 234,346.5C 239.837,348.059 239.67,349.559 233.5,351C 235.101,351.273 236.601,351.773 238,352.5C 238.333,352.167 238.667,351.833 239,351.5C 240.635,352.726 242.135,354.059 243.5,355.5C 241.817,356.853 240.484,358.52 239.5,360.5C 240.428,361.768 240.595,363.101 240,364.5C 234.318,367.165 234.152,369.999 239.5,373C 233.767,376.609 227.767,379.443 221.5,381.5C 207.137,377.649 193.804,371.649 181.5,363.5C 181.56,362.957 181.893,362.624 182.5,362.5C 184.075,363.456 185.742,364.123 187.5,364.5C 190.167,365.366 192.833,366.366 195.5,367.5C 197.024,369.858 199.024,371.691 201.5,373C 205.526,373.759 206.859,372.259 205.5,368.5C 207.006,367.253 208.506,367.253 210,368.5C 211.397,367.774 212.231,366.607 212.5,365C 211.898,360.074 211.565,354.907 211.5,349.5C 214.448,349.223 217.281,349.556 220,350.5C 220.738,347.788 220.071,345.455 218,343.5C 217.586,343.957 217.086,344.291 216.5,344.5C 215.3,343.469 213.966,342.635 212.5,342C 216.852,341.581 217.185,340.914 213.5,340C 215.382,339.802 217.048,339.302 218.5,338.5 Z"/></g>
<g><path style="opacity:1" fill="#0984bc" d="M 235.5,344.5 C 241.401,345.957 247.401,346.624 253.5,346.5C 255.833,347.167 258.167,347.833 260.5,348.5C 258.688,348.771 257.022,349.438 255.5,350.5C 259.031,352.002 262.365,354.002 265.5,356.5C 259.953,359.619 259.286,363.619 263.5,368.5C 262.132,369.594 260.965,369.26 260,367.5C 259.308,368.025 258.808,368.692 258.5,369.5C 260.352,372.383 262.019,375.383 263.5,378.5C 262.543,381.15 260.876,381.817 258.5,380.5C 257.184,383.028 256.017,383.028 255,380.5C 251.688,382.501 248.021,383.501 244,383.5C 238.857,382.775 233.69,382.441 228.5,382.5C 226.139,382.326 223.806,381.993 221.5,381.5C 227.767,379.443 233.767,376.609 239.5,373C 234.152,369.999 234.318,367.165 240,364.5C 240.595,363.101 240.428,361.768 239.5,360.5C 240.484,358.52 241.817,356.853 243.5,355.5C 242.135,354.059 240.635,352.726 239,351.5C 238.667,351.833 238.333,352.167 238,352.5C 236.601,351.773 235.101,351.273 233.5,351C 239.67,349.559 239.837,348.059 234,346.5C 233.472,345.184 233.972,344.517 235.5,344.5 Z"/></g>
<g><path style="opacity:1" fill="#0b91c7" d="M 269.5,386.5 C 264.637,386.181 259.97,386.514 255.5,387.5C 246.196,386.785 237.196,385.118 228.5,382.5C 233.69,382.441 238.857,382.775 244,383.5C 248.021,383.501 251.688,382.501 255,380.5C 256.017,383.028 257.184,383.028 258.5,380.5C 260.876,381.817 262.543,381.15 263.5,378.5C 262.019,375.383 260.352,372.383 258.5,369.5C 258.808,368.692 259.308,368.025 260,367.5C 260.965,369.26 262.132,369.594 263.5,368.5C 259.286,363.619 259.953,359.619 265.5,356.5C 262.365,354.002 259.031,352.002 255.5,350.5C 257.022,349.438 258.688,348.771 260.5,348.5C 264.179,348.276 267.846,347.942 271.5,347.5C 271.33,348.822 271.663,349.989 272.5,351C 276.195,351.318 279.862,351.818 283.5,352.5C 285.601,352.368 287.101,351.368 288,349.5C 288.333,349.833 288.667,350.167 289,350.5C 289.009,353.364 288.176,356.03 286.5,358.5C 286.673,360.038 287.006,361.538 287.5,363C 287.167,363.5 286.833,364 286.5,364.5C 285.109,363.355 283.776,363.355 282.5,364.5C 283.863,365.893 284.696,367.559 285,369.5C 285.915,368.672 286.581,367.672 287,366.5C 287.292,371.055 286.792,375.555 285.5,380C 285.354,382.188 286.354,383.521 288.5,384C 287.333,385.167 286.167,386.333 285,387.5C 284.072,385.665 282.906,385.332 281.5,386.5C 280.485,383.832 278.818,383.166 276.5,384.5C 279.152,386.592 279.986,389.258 279,392.5C 276.14,389.766 272.973,387.766 269.5,386.5 Z"/></g>
<g><path style="opacity:1" fill="#15b4e3" d="M 353.5,319.5 C 361.335,331.832 368.668,344.498 375.5,357.5C 373.665,356.878 372.498,355.544 372,353.5C 371.586,353.957 371.086,354.291 370.5,354.5C 369.833,353.5 369.167,352.5 368.5,351.5C 368.167,351.833 367.833,352.167 367.5,352.5C 368.488,355.588 369.821,358.922 371.5,362.5C 371.167,363.167 370.833,363.833 370.5,364.5C 369.833,363.5 369.167,362.5 368.5,361.5C 367.253,363.006 367.253,364.506 368.5,366C 367.328,366.419 366.328,367.085 365.5,368C 366.131,370.355 366.131,372.522 365.5,374.5C 361.987,375.851 360.987,378.184 362.5,381.5C 361.349,382.731 360.183,382.731 359,381.5C 358.667,382.167 358.333,382.833 358,383.5C 355.959,382.577 353.792,382.244 351.5,382.5C 351.5,381.5 351.5,380.5 351.5,379.5C 350.489,376.468 349.322,373.468 348,370.5C 347.374,368.287 347.541,366.12 348.5,364C 345.931,361.476 345.931,358.976 348.5,356.5C 346.48,353.784 346.146,350.784 347.5,347.5C 347.02,344.048 347.687,340.548 349.5,337C 349.323,333.332 347.99,329.832 345.5,326.5C 346.631,325.396 347.465,325.729 348,327.5C 348.711,325.101 348.544,322.768 347.5,320.5C 348.145,319.354 348.978,318.354 350,317.5C 350.816,318.823 351.983,319.489 353.5,319.5 Z"/></g>
<g><path style="opacity:1" fill="#0f9acd" d="M 295.5,353.5 C 295.167,354.167 294.833,354.833 294.5,355.5C 293.174,358.079 293.507,360.579 295.5,363C 295.097,364.473 294.43,365.806 293.5,367C 295.538,368.236 296.705,370.069 297,372.5C 297.667,373.833 298.333,373.833 299,372.5C 300.782,374.939 301.449,377.606 301,380.5C 299.542,379.253 298.042,379.253 296.5,380.5C 295.123,376.735 294.123,377.068 293.5,381.5C 293.818,382.647 294.484,383.481 295.5,384C 291.705,385.064 290.539,387.564 292,391.5C 293.341,394.11 292.841,396.61 290.5,399C 291.357,399.689 292.023,400.522 292.5,401.5C 292.229,404.047 291.229,406.047 289.5,407.5C 288.657,405.827 287.324,404.66 285.5,404C 287.037,402.89 287.703,401.39 287.5,399.5C 286.5,399.5 285.5,399.5 284.5,399.5C 284.541,403.243 283.874,403.41 282.5,400C 281.5,399.667 280.5,399.333 279.5,399C 278.744,395.773 276.744,392.939 273.5,390.5C 272.614,389.675 272.281,388.675 272.5,387.5C 271.209,387.737 270.209,387.404 269.5,386.5C 272.973,387.766 276.14,389.766 279,392.5C 279.986,389.258 279.152,386.592 276.5,384.5C 278.818,383.166 280.485,383.832 281.5,386.5C 282.906,385.332 284.072,385.665 285,387.5C 286.167,386.333 287.333,385.167 288.5,384C 286.354,383.521 285.354,382.188 285.5,380C 286.792,375.555 287.292,371.055 287,366.5C 286.581,367.672 285.915,368.672 285,369.5C 284.696,367.559 283.863,365.893 282.5,364.5C 283.776,363.355 285.109,363.355 286.5,364.5C 286.833,364 287.167,363.5 287.5,363C 287.006,361.538 286.673,360.038 286.5,358.5C 288.176,356.03 289.009,353.364 289,350.5C 288.667,350.167 288.333,349.833 288,349.5C 287.101,351.368 285.601,352.368 283.5,352.5C 279.862,351.818 276.195,351.318 272.5,351C 271.663,349.989 271.33,348.822 271.5,347.5C 267.846,347.942 264.179,348.276 260.5,348.5C 258.167,347.833 255.833,347.167 253.5,346.5C 265.551,346.813 277.551,346.479 289.5,345.5C 292.468,347.434 294.468,350.1 295.5,353.5 Z"/></g>
<g><path style="opacity:1" fill="#0ba0d4" d="M 294.5,355.5 C 298.193,361.552 301.36,367.886 304,374.5C 304.494,376.134 304.66,377.801 304.5,379.5C 305.5,379.5 306.5,379.5 307.5,379.5C 307.643,381.262 307.309,382.929 306.5,384.5C 307.689,385.429 309.022,385.762 310.5,385.5C 311.36,386.982 312.36,388.815 313.5,391C 312.265,393.966 310.932,396.799 309.5,399.5C 308.022,399.762 306.689,399.429 305.5,398.5C 307.447,396.724 307.78,394.724 306.5,392.5C 305.749,393.376 305.249,394.376 305,395.5C 304.333,394.167 303.667,394.167 303,395.5C 302.16,398.318 302.994,400.484 305.5,402C 304.234,402.309 303.067,402.809 302,403.5C 300.074,407.965 299.24,412.632 299.5,417.5C 301.824,417.662 303.491,418.828 304.5,421C 303.748,421.671 303.414,422.504 303.5,423.5C 302.883,423.611 302.383,423.944 302,424.5C 301.751,423.376 301.251,422.376 300.5,421.5C 295.533,420.833 294.867,419.333 298.5,417C 296.775,416.135 295.108,415.469 293.5,415C 294.167,414.333 294.833,413.667 295.5,413C 292.815,411.839 290.815,410.006 289.5,407.5C 291.229,406.047 292.229,404.047 292.5,401.5C 292.023,400.522 291.357,399.689 290.5,399C 292.841,396.61 293.341,394.11 292,391.5C 290.539,387.564 291.705,385.064 295.5,384C 294.484,383.481 293.818,382.647 293.5,381.5C 294.123,377.068 295.123,376.735 296.5,380.5C 298.042,379.253 299.542,379.253 301,380.5C 301.449,377.606 300.782,374.939 299,372.5C 298.333,373.833 297.667,373.833 297,372.5C 296.705,370.069 295.538,368.236 293.5,367C 294.43,365.806 295.097,364.473 295.5,363C 293.507,360.579 293.174,358.079 294.5,355.5 Z"/></g>
<g><path style="opacity:1" fill="#21bae5" d="M 375.5,357.5 C 375.425,360.206 375.092,362.873 374.5,365.5C 373.448,365.351 372.448,365.517 371.5,366C 371.833,366.333 372.167,366.667 372.5,367C 370.842,367.725 370.342,368.892 371,370.5C 371.923,371.759 372.757,373.092 373.5,374.5C 378.271,376.521 380.938,380.188 381.5,385.5C 380.103,393.021 378.103,400.354 375.5,407.5C 374.732,406.737 374.232,405.737 374,404.5C 373.213,405.711 372.546,406.711 372,407.5C 366.589,406.256 363.422,402.923 362.5,397.5C 361.18,399.27 359.68,399.603 358,398.5C 357.068,394.253 354.735,391.253 351,389.5C 350.982,387.203 351.149,384.869 351.5,382.5C 353.792,382.244 355.959,382.577 358,383.5C 358.333,382.833 358.667,382.167 359,381.5C 360.183,382.731 361.349,382.731 362.5,381.5C 360.987,378.184 361.987,375.851 365.5,374.5C 366.131,372.522 366.131,370.355 365.5,368C 366.328,367.085 367.328,366.419 368.5,366C 367.253,364.506 367.253,363.006 368.5,361.5C 369.167,362.5 369.833,363.5 370.5,364.5C 370.833,363.833 371.167,363.167 371.5,362.5C 369.821,358.922 368.488,355.588 367.5,352.5C 367.833,352.167 368.167,351.833 368.5,351.5C 369.167,352.5 369.833,353.5 370.5,354.5C 371.086,354.291 371.586,353.957 372,353.5C 372.498,355.544 373.665,356.878 375.5,357.5 Z"/></g>
<g><path style="opacity:1" fill="#30a6d6" d="M 147.5,358.5 C 155.466,363.83 163.133,369.664 170.5,376C 178.729,380.276 186.729,384.776 194.5,389.5C 191.04,390.37 187.54,391.037 184,391.5C 180.861,390.574 177.694,390.408 174.5,391C 170.934,396.651 167.267,402.151 163.5,407.5C 164.207,403.752 165.207,400.086 166.5,396.5C 165.5,396.5 164.5,396.5 163.5,396.5C 163.5,397.833 163.5,399.167 163.5,400.5C 162.167,400.5 160.833,400.5 159.5,400.5C 159.5,399.167 159.5,397.833 159.5,396.5C 161.635,396.853 162.968,396.02 163.5,394C 160.994,389.743 158.661,385.41 156.5,381C 157.86,379.062 157.527,377.396 155.5,376C 156.167,375.667 156.833,375.333 157.5,375C 157.881,368.265 154.881,363.765 148.5,361.5C 147.614,360.675 147.281,359.675 147.5,358.5 Z"/></g>
<g><path style="opacity:1" fill="#0b7fb5" d="M 143.5,365.5 C 144.873,365.343 146.207,365.51 147.5,366C 147.167,366.333 146.833,366.667 146.5,367C 149.621,367.788 151.288,369.788 151.5,373C 150.582,375.761 149.916,378.594 149.5,381.5C 150.675,381.281 151.675,381.614 152.5,382.5C 152.062,383.506 151.396,383.506 150.5,382.5C 149.676,385.785 149.176,389.118 149,392.5C 148.5,393 148,393.5 147.5,394C 150.057,396.867 149.724,398.867 146.5,400C 148.041,401.579 149.208,403.413 150,405.5C 151.095,410.78 151.595,416.113 151.5,421.5C 153.292,421.366 154.958,421.699 156.5,422.5C 154.263,427.256 151.763,431.922 149,436.5C 147.961,437.71 146.794,438.71 145.5,439.5C 145.422,438.345 145.088,437.012 144.5,435.5C 141.394,438.243 139.394,437.576 138.5,433.5C 142.814,433.228 143.314,431.895 140,429.5C 138.658,430.902 137.824,430.569 137.5,428.5C 136.922,423.943 136.255,419.443 135.5,415C 136.833,413.333 136.833,411.667 135.5,410C 136.167,409.333 136.833,408.667 137.5,408C 137.775,402.649 137.441,397.149 136.5,391.5C 137.131,387.966 137.798,384.466 138.5,381C 136.866,380.506 135.199,380.34 133.5,380.5C 136.598,375.291 139.932,370.291 143.5,365.5 Z"/></g>
<g><path style="opacity:1" fill="#1190c5" d="M 147.5,358.5 C 147.281,359.675 147.614,360.675 148.5,361.5C 154.881,363.765 157.881,368.265 157.5,375C 156.833,375.333 156.167,375.667 155.5,376C 157.527,377.396 157.86,379.062 156.5,381C 158.661,385.41 160.994,389.743 163.5,394C 162.968,396.02 161.635,396.853 159.5,396.5C 159.5,397.833 159.5,399.167 159.5,400.5C 160.833,400.5 162.167,400.5 163.5,400.5C 163.5,399.167 163.5,397.833 163.5,396.5C 164.5,396.5 165.5,396.5 166.5,396.5C 165.207,400.086 164.207,403.752 163.5,407.5C 161.438,412.625 159.104,417.625 156.5,422.5C 154.958,421.699 153.292,421.366 151.5,421.5C 151.595,416.113 151.095,410.78 150,405.5C 149.208,403.413 148.041,401.579 146.5,400C 149.724,398.867 150.057,396.867 147.5,394C 148,393.5 148.5,393 149,392.5C 149.176,389.118 149.676,385.785 150.5,382.5C 151.396,383.506 152.062,383.506 152.5,382.5C 151.675,381.614 150.675,381.281 149.5,381.5C 149.916,378.594 150.582,375.761 151.5,373C 151.288,369.788 149.621,367.788 146.5,367C 146.833,366.667 147.167,366.333 147.5,366C 146.207,365.51 144.873,365.343 143.5,365.5C 144.079,362.669 145.412,360.336 147.5,358.5 Z"/></g>
<g><path style="opacity:1" fill="#1eabda" d="M 295.5,353.5 C 310.251,382.169 325.918,410.335 342.5,438C 341,439.115 339.333,439.948 337.5,440.5C 331.617,439.485 325.617,439.485 319.5,440.5C 319.5,439.5 319.5,438.5 319.5,437.5C 317.801,437.66 316.134,437.494 314.5,437C 316.925,436.707 318.758,435.541 320,433.5C 321.494,434.747 322.994,434.747 324.5,433.5C 322.831,432.329 321.331,430.996 320,429.5C 319.228,429.645 318.561,429.978 318,430.5C 316.731,429.095 316.231,427.429 316.5,425.5C 315.5,425.5 314.5,425.5 313.5,425.5C 312.948,423.669 312.948,422.003 313.5,420.5C 312.667,420.167 311.833,419.833 311,419.5C 309.331,420.166 307.831,420.166 306.5,419.5C 305.289,420.274 305.289,421.107 306.5,422C 305.756,423.039 304.756,423.539 303.5,423.5C 303.414,422.504 303.748,421.671 304.5,421C 303.491,418.828 301.824,417.662 299.5,417.5C 299.24,412.632 300.074,407.965 302,403.5C 303.067,402.809 304.234,402.309 305.5,402C 302.994,400.484 302.16,398.318 303,395.5C 303.667,394.167 304.333,394.167 305,395.5C 305.249,394.376 305.749,393.376 306.5,392.5C 307.78,394.724 307.447,396.724 305.5,398.5C 306.689,399.429 308.022,399.762 309.5,399.5C 310.932,396.799 312.265,393.966 313.5,391C 312.36,388.815 311.36,386.982 310.5,385.5C 309.022,385.762 307.689,385.429 306.5,384.5C 307.309,382.929 307.643,381.262 307.5,379.5C 306.5,379.5 305.5,379.5 304.5,379.5C 304.66,377.801 304.494,376.134 304,374.5C 301.36,367.886 298.193,361.552 294.5,355.5C 294.833,354.833 295.167,354.167 295.5,353.5 Z"/></g>
<g><path style="opacity:1" fill="#41c3ed" d="M 375.5,357.5 C 381.291,365.645 386.291,374.312 390.5,383.5C 390.343,384.873 390.51,386.207 391,387.5C 392.563,388.725 393.73,390.225 394.5,392C 393.825,396.238 392.325,400.071 390,403.5C 389.667,402.833 389.333,402.167 389,401.5C 387.693,402.772 386.193,403.772 384.5,404.5C 383.626,406.747 383.292,409.08 383.5,411.5C 382.5,411.5 381.5,411.5 380.5,411.5C 380.5,410.167 380.5,408.833 380.5,407.5C 378.833,407.5 377.167,407.5 375.5,407.5C 378.103,400.354 380.103,393.021 381.5,385.5C 380.938,380.188 378.271,376.521 373.5,374.5C 372.757,373.092 371.923,371.759 371,370.5C 370.342,368.892 370.842,367.725 372.5,367C 372.167,366.667 371.833,366.333 371.5,366C 372.448,365.517 373.448,365.351 374.5,365.5C 375.092,362.873 375.425,360.206 375.5,357.5 Z"/></g>
<g><path style="opacity:1" fill="#52c1ea" d="M 390.5,383.5 C 401.478,400.773 411.978,418.44 422,436.5C 422.49,437.793 422.657,439.127 422.5,440.5C 407.967,440.777 393.3,440.444 378.5,439.5C 384.045,438.795 389.712,437.961 395.5,437C 394.366,435.984 394.699,435.317 396.5,435C 395.354,434.355 394.354,433.522 393.5,432.5C 383.951,435.433 379.785,432.099 381,422.5C 379.899,420.606 378.566,419.939 377,420.5C 376.506,418.866 376.34,417.199 376.5,415.5C 378.827,415.247 380.827,415.914 382.5,417.5C 383.466,415.604 383.799,413.604 383.5,411.5C 383.292,409.08 383.626,406.747 384.5,404.5C 386.193,403.772 387.693,402.772 389,401.5C 389.333,402.167 389.667,402.833 390,403.5C 392.325,400.071 393.825,396.238 394.5,392C 393.73,390.225 392.563,388.725 391,387.5C 390.51,386.207 390.343,384.873 390.5,383.5 Z"/></g>
<g><path style="opacity:1" fill="#3abfe3" d="M 351.5,379.5 C 351.5,380.5 351.5,381.5 351.5,382.5C 351.149,384.869 350.982,387.203 351,389.5C 354.735,391.253 357.068,394.253 358,398.5C 359.68,399.603 361.18,399.27 362.5,397.5C 363.422,402.923 366.589,406.256 372,407.5C 372.546,406.711 373.213,405.711 374,404.5C 374.232,405.737 374.732,406.737 375.5,407.5C 377.167,407.5 378.833,407.5 380.5,407.5C 380.5,408.833 380.5,410.167 380.5,411.5C 381.5,411.5 382.5,411.5 383.5,411.5C 383.799,413.604 383.466,415.604 382.5,417.5C 380.827,415.914 378.827,415.247 376.5,415.5C 376.34,417.199 376.506,418.866 377,420.5C 378.566,419.939 379.899,420.606 381,422.5C 379.785,432.099 383.951,435.433 393.5,432.5C 394.354,433.522 395.354,434.355 396.5,435C 394.699,435.317 394.366,435.984 395.5,437C 389.712,437.961 384.045,438.795 378.5,439.5C 377.325,439.719 376.325,439.386 375.5,438.5C 366.396,421.285 357.063,404.285 347.5,387.5C 347.577,386.25 348.244,385.417 349.5,385C 348.5,384.667 347.5,384.333 346.5,384C 348.083,382.242 349.75,380.742 351.5,379.5 Z"/></g>
<g><path style="opacity:1" fill="#18a5d4" d="M 255.5,387.5 C 259.97,386.514 264.637,386.181 269.5,386.5C 270.209,387.404 271.209,387.737 272.5,387.5C 272.281,388.675 272.614,389.675 273.5,390.5C 276.744,392.939 278.744,395.773 279.5,399C 280.5,399.333 281.5,399.667 282.5,400C 283.874,403.41 284.541,403.243 284.5,399.5C 285.5,399.5 286.5,399.5 287.5,399.5C 287.703,401.39 287.037,402.89 285.5,404C 287.324,404.66 288.657,405.827 289.5,407.5C 290.815,410.006 292.815,411.839 295.5,413C 294.833,413.667 294.167,414.333 293.5,415C 295.108,415.469 296.775,416.135 298.5,417C 294.867,419.333 295.533,420.833 300.5,421.5C 301.251,422.376 301.751,423.376 302,424.5C 302.383,423.944 302.883,423.611 303.5,423.5C 304.756,423.539 305.756,423.039 306.5,422C 305.289,421.107 305.289,420.274 306.5,419.5C 307.831,420.166 309.331,420.166 311,419.5C 311.833,419.833 312.667,420.167 313.5,420.5C 312.948,422.003 312.948,423.669 313.5,425.5C 314.5,425.5 315.5,425.5 316.5,425.5C 316.231,427.429 316.731,429.095 318,430.5C 318.561,429.978 319.228,429.645 320,429.5C 321.331,430.996 322.831,432.329 324.5,433.5C 322.994,434.747 321.494,434.747 320,433.5C 318.758,435.541 316.925,436.707 314.5,437C 316.134,437.494 317.801,437.66 319.5,437.5C 319.5,438.5 319.5,439.5 319.5,440.5C 312.759,440.829 306.092,440.329 299.5,439C 290.225,422.286 280.559,405.786 270.5,389.5C 265.521,387.887 260.521,387.22 255.5,387.5 Z"/></g>
<g><path style="opacity:1" fill="#075688" d="M 128.5,390.5 C 126.647,394.941 124.98,399.441 123.5,404C 123.957,404.414 124.291,404.914 124.5,405.5C 123.62,407.429 122.62,409.263 121.5,411C 122.037,414.182 123.037,417.515 124.5,421C 124.067,426.421 122.734,431.588 120.5,436.5C 122.282,437.984 124.282,438.984 126.5,439.5C 117.809,439.632 109.142,439.299 100.5,438.5C 101.177,434.625 103.01,431.292 106,428.5C 113.274,415.605 120.774,402.938 128.5,390.5 Z"/></g>
<g><path style="opacity:1" fill="#096ca2" d="M 133.5,380.5 C 135.199,380.34 136.866,380.506 138.5,381C 137.798,384.466 137.131,387.966 136.5,391.5C 137.441,397.149 137.775,402.649 137.5,408C 136.833,408.667 136.167,409.333 135.5,410C 136.833,411.667 136.833,413.333 135.5,415C 136.255,419.443 136.922,423.943 137.5,428.5C 137.824,430.569 138.658,430.902 140,429.5C 143.314,431.895 142.814,433.228 138.5,433.5C 139.394,437.576 141.394,438.243 144.5,435.5C 145.088,437.012 145.422,438.345 145.5,439.5C 139.334,440.379 133.001,440.379 126.5,439.5C 124.282,438.984 122.282,437.984 120.5,436.5C 122.734,431.588 124.067,426.421 124.5,421C 123.037,417.515 122.037,414.182 121.5,411C 122.62,409.263 123.62,407.429 124.5,405.5C 124.291,404.914 123.957,404.414 123.5,404C 124.98,399.441 126.647,394.941 128.5,390.5C 129.642,386.883 131.308,383.55 133.5,380.5 Z"/></g>
</svg>
